<?xml version="1.0" standalone="no"?>
<!DOCTYPE svg PUBLIC "-//W3C//DTD SVG 1.1//EN" "http://www.w3.org/Graphics/SVG/1.1/DTD/svg11.dtd" >
<svg>
<metadata>
Created by FontForge 20110222 at Tue Jun 10 08:54:07 2014
 By deploy user
Dunkin (c) (Neale Davidson). 2012. All Rights Reserved
</metadata>
<defs>
<font id="Dunkin" horiz-adv-x="1400" >
  <font-face 
    font-family="Dunkin"
    font-weight="400"
    font-stretch="normal"
    units-per-em="2048"
    panose-1="2 0 5 0 0 0 0 0 0 0"
    ascent="1638"
    descent="-410"
    x-height="1400"
    cap-height="1600"
    bbox="-450 -600 2400 2500"
    underline-thickness="150"
    underline-position="-142"
    unicode-range="U+0020-F002"
  />
<missing-glyph horiz-adv-x="1650" 
d="M0 200v1100q0 200 200 200h1100q200 0 200 -200v-1100q0 -200 -200 -200h-1100q-200 0 -200 200zM1475 201v1099q0 175 -175 175h-1100q-174 0 -175 -175v-1100q1 -175 175 -175h1101q174 0 174 176z" />
    <glyph glyph-name=".notdef" horiz-adv-x="1650" 
d="M0 200v1100q0 200 200 200h1100q200 0 200 -200v-1100q0 -200 -200 -200h-1100q-200 0 -200 200zM1475 201v1099q0 175 -175 175h-1100q-174 0 -175 -175v-1100q1 -175 175 -175h1101q174 0 174 176z" />
    <glyph glyph-name=".null" horiz-adv-x="0" 
 />
    <glyph glyph-name="nonmarkingreturn" horiz-adv-x="508" 
 />
    <glyph glyph-name="space" unicode=" " 
 />
    <glyph glyph-name="space" unicode="&#xa0;" 
 />
    <glyph glyph-name="exclam" unicode="!" horiz-adv-x="600" 
d="M400 800q0 -83 -58.5 -141.5t-141.5 -58.5t-141.5 58.5t-58.5 141.5v600q0 83 58.5 141.5t141.5 58.5t141.5 -58.5t58.5 -141.5v-600zM341.5 341.5q58.5 -58.5 58.5 -141.5t-58.5 -141.5t-141.5 -58.5t-141.5 58.5t-58.5 141.5t58.5 141.5t141.5 58.5t141.5 -58.5z" />
    <glyph glyph-name="quotedbl" unicode="&#x22;" horiz-adv-x="1200" 
d="M0 1400q0 83 58.5 141.5t141.5 58.5t141.5 -58.5t58.5 -141.5v-400q0 -83 -58.5 -141.5t-141.5 -58.5t-141.5 58.5t-58.5 141.5v400zM600 1400q0 83 58.5 141.5t141.5 58.5t141.5 -58.5t58.5 -141.5v-400q0 -83 -58.5 -141.5t-141.5 -58.5t-141.5 58.5t-58.5 141.5v400z
" />
    <glyph glyph-name="numbersign" unicode="#" horiz-adv-x="1800" 
d="M700 900v-200h200v200h-200zM700 300v-100q0 -83 -58.5 -141.5t-141.5 -58.5t-141.5 58.5t-58.5 141.5v100h-100q-83 0 -141.5 58.5t-58.5 141.5t58.5 141.5t141.5 58.5h100v200h-100q-83 0 -141.5 58.5t-58.5 141.5t58.5 141.5t141.5 58.5h100v100q0 83 58.5 141.5
t141.5 58.5t141.5 -58.5t58.5 -141.5v-100h200v100q0 83 58.5 141.5t141.5 58.5t141.5 -58.5t58.5 -141.5v-100h100q83 0 141.5 -58.5t58.5 -141.5t-58.5 -141.5t-141.5 -58.5h-100v-200h100q83 0 141.5 -58.5t58.5 -141.5t-58.5 -141.5t-141.5 -58.5h-100v-100
q0 -83 -58.5 -141.5t-141.5 -58.5t-141.5 58.5t-58.5 141.5v100h-200z" />
    <glyph glyph-name="dollar" unicode="$" horiz-adv-x="1350" 
d="M350 100q-149 0 -264 85q-7 5 -13 10q-21 17 -41 37q1 2 3 5q-35 49 -35 113q0 83 58.5 141.5t141.5 58.5q48 0 100 -25q50 -25 150 -25h250q21 0 35.5 14.5t14.5 35.5t-14.5 35.5t-35.5 14.5h-250q-186 0 -318 132t-132 318t132 318q114 114 268 132q0 83 58.5 141.5
t141.5 58.5t141.5 -58.5t58.5 -141.5q149 0 264 -85q7 -5 13 -10q21 -17 41 -37q-3 -1 -5 -1q37 -51 37 -117q0 -83 -58.5 -141.5t-141.5 -58.5q-50 0 -100 25t-150 25h-250q-21 0 -35.5 -14.5t-14.5 -35.5t14.5 -35.5t35.5 -14.5h250q186 0 318 -132t132 -318t-132 -318
q-95 -95 -218 -132q0 -83 -58.5 -141.5t-141.5 -58.5t-141.5 58.5t-58.5 141.5h-50z" />
    <glyph glyph-name="percent" unicode="%" horiz-adv-x="1600" 
d="M461 804q-30 -4 -61 -4q-166 0 -283 117t-117 283t117 283t283 117t283 -117q81 -81 106 -187l136 204l1 -1q13 23 32 43q59 58 142 58t141.5 -58.5t58.5 -141.5t-25 -125l-325 -478q24 3 50 3q166 0 283 -117t117 -283t-117 -283t-283 -117t-283 117q-80 80 -105 184
l-137 -201h-1q-13 -22 -32 -41q-59 -59 -142 -59t-141.5 58.5t-58.5 141.5q0 55 26 100h-1z" />
    <glyph glyph-name="ampersand" unicode="&#x26;" horiz-adv-x="1350" 
d="M600 400q83 0 142 59l67 83q58 58 141 58t141.5 -58.5t58.5 -141.5q0 -75 -47 -130q-33 -49 -78 -94q-101 -101 -225 -144v-32q0 -83 -58.5 -141.5t-141.5 -58.5t-141.5 58.5t-58.5 141.5v9q-144 28 -253 138q-147 146 -147 353q0 171 99 300q-99 129 -99 300
q0 207 147 354q109 109 253 137v9q0 83 58.5 141.5t141.5 58.5t141.5 -58.5t58.5 -141.5v-200q0 -83 -58.5 -141.5t-141.5 -58.5h-100q-41 0 -70.5 -29.5t-29.5 -70.5t29.5 -70.5t70.5 -29.5h100q83 0 141.5 -58.5t58.5 -141.5t-58.5 -141.5t-141.5 -58.5h-100
q-41 0 -70.5 -29.5t-29.5 -70.5t29.5 -70.5t70.5 -29.5h100z" />
    <glyph glyph-name="quotesingle" unicode="'" horiz-adv-x="600" 
d="M0 1400q0 83 58.5 141.5t141.5 58.5t141.5 -58.5t58.5 -141.5v-400q0 -83 -58.5 -141.5t-141.5 -58.5t-141.5 58.5t-58.5 141.5v400z" />
    <glyph glyph-name="parenleft" unicode="(" horiz-adv-x="1350" 
d="M600 -350q-249 0 -424.5 175.5t-175.5 424.5v1200q0 249 175.5 424.5t424.5 175.5q83 0 141.5 -58.5t58.5 -141.5t-58.5 -141.5t-141.5 -58.5t-141.5 -58.5t-58.5 -141.5v-1200q0 -83 58.5 -141.5t141.5 -58.5t141.5 -58.5t58.5 -141.5t-58.5 -141.5t-141.5 -58.5z" />
    <glyph glyph-name="parenright" unicode=")" horiz-adv-x="1350" 
d="M58.5 -291.5q-58.5 58.5 -58.5 141.5t58.5 141.5t141.5 58.5t141.5 58.5t58.5 141.5v1200q0 83 -58.5 141.5t-141.5 58.5t-141.5 58.5t-58.5 141.5t58.5 141.5t141.5 58.5q249 0 424.5 -175.5t175.5 -424.5v-1200q0 -249 -175.5 -424.5t-424.5 -175.5q-83 0 -141.5 58.5z
" />
    <glyph glyph-name="asterisk" unicode="*" 
d="M203 1400l-44 59q-59 58 -59 141t58.5 141.5t141.5 58.5t142 -58l158 -227l159 227q58 58 141 58t141.5 -58.5t58.5 -141.5t-58 -141l-44 -59h2q83 0 141.5 -58.5t58.5 -141.5t-58.5 -141.5t-141.5 -58.5h-1l43 -58q58 -59 58 -142t-58.5 -141.5t-141.5 -58.5t-141 59
l-159 226l-158 -226q-59 -59 -142 -59t-141.5 58.5t-58.5 141.5t59 142l43 58h-2q-83 0 -141.5 58.5t-58.5 141.5t58.5 141.5t141.5 58.5h3z" />
    <glyph glyph-name="plus" unicode="+" horiz-adv-x="1200" 
d="M700 1000h100q83 0 141.5 -58.5t58.5 -141.5t-58.5 -141.5t-141.5 -58.5h-100v-100q0 -83 -58.5 -141.5t-141.5 -58.5t-141.5 58.5t-58.5 141.5v100h-100q-83 0 -141.5 58.5t-58.5 141.5t58.5 141.5t141.5 58.5h100v100q0 83 58.5 141.5t141.5 58.5t141.5 -58.5
t58.5 -141.5v-100z" />
    <glyph glyph-name="comma" unicode="," horiz-adv-x="600" 
d="M0 200q0 83 58.5 141.5t141.5 58.5t141.5 -58.5t58.5 -141.5v-400q0 -83 -58.5 -141.5t-141.5 -58.5t-141.5 58.5t-58.5 141.5v400z" />
    <glyph glyph-name="hyphen" unicode="-" horiz-adv-x="1200" 
d="M800 1000q83 0 141.5 -58.5t58.5 -141.5t-58.5 -141.5t-141.5 -58.5h-600q-83 0 -141.5 58.5t-58.5 141.5t58.5 141.5t141.5 58.5h600z" />
    <glyph glyph-name="hyphen" unicode="&#xad;" horiz-adv-x="1200" 
d="M800 1000q83 0 141.5 -58.5t58.5 -141.5t-58.5 -141.5t-141.5 -58.5h-600q-83 0 -141.5 58.5t-58.5 141.5t58.5 141.5t141.5 58.5h600z" />
    <glyph glyph-name="period" unicode="." horiz-adv-x="600" 
d="M200 0q-83 0 -141.5 58.5t-58.5 141.5t58.5 141.5t141.5 58.5t141.5 -58.5t58.5 -141.5t-58.5 -141.5t-141.5 -58.5z" />
    <glyph glyph-name="slash" unicode="/" 
d="M25 300l800 1200l1 -1q13 23 32 43q59 58 142 58t141.5 -58.5t58.5 -141.5t-25 -125l-800 -1175h-1q-13 -22 -32 -41q-59 -59 -142 -59t-141.5 58.5t-58.5 141.5q0 55 26 100h-1z" />
    <glyph glyph-name="zero" unicode="0" horiz-adv-x="1800" 
d="M800 0q-331 0 -565.5 234.5t-234.5 565.5t234.5 565.5t565.5 234.5t565.5 -234.5t234.5 -565.5t-234.5 -565.5t-565.5 -234.5zM1083 517q117 117 117 283t-117 283t-283 117t-283 -117t-117 -283t117 -283t283 -117t283 117z" />
    <glyph glyph-name="one" unicode="1" horiz-adv-x="800" 
d="M400 1600q83 0 141.5 -58.5t58.5 -141.5v-1200q0 -83 -58.5 -141.5t-141.5 -58.5t-141.5 58.5t-58.5 141.5v1000q-83 0 -141.5 58.5t-58.5 141.5t58.5 141.5t141.5 58.5h200z" />
    <glyph glyph-name="two" unicode="2" horiz-adv-x="1350" 
d="M724 899q26 45 26 100q0 83 -58.5 141.5t-141.5 58.5t-141 -58q-40 -56 -67 -83q-59 -59 -142 -59t-141.5 58.5t-58.5 141.5q0 69 41 121q28 47 85 104q175 175 424 175t424.5 -175.5t175.5 -424.5q0 -225 -99 -298h-1l-312 -301h212q83 0 141.5 -58.5t58.5 -141.5
t-58.5 -141.5t-141.5 -58.5h-750q-83 0 -141.5 58.5t-58.5 141.5t59 142q19 19 42 32l-1 1z" />
    <glyph glyph-name="three" unicode="3" horiz-adv-x="1350" 
d="M550 1000h100q41 0 70.5 29.5t29.5 70.5t-29.5 70.5t-70.5 29.5h-100q-83 0 -142 -58l-67 -83q-58 -59 -141 -59t-141.5 58.5t-58.5 141.5q0 75 47 130q33 49 78 95q176 175 425 175h100q207 0 353.5 -146.5t146.5 -353.5q0 -171 -99 -300q99 -129 99 -300
q0 -207 -146.5 -353.5t-353.5 -146.5h-100q-249 0 -425 176q-45 45 -78 94q-47 55 -47 130q0 83 58.5 141.5t141.5 58.5t141 -58l67 -83q59 -59 142 -59h100q41 0 70.5 29.5t29.5 70.5t-29.5 70.5t-70.5 29.5h-100q-83 0 -141.5 58.5t-58.5 141.5t58.5 141.5t141.5 58.5z
" />
    <glyph glyph-name="four" unicode="4" 
d="M1200 200q0 -83 -58.5 -141.5t-141.5 -58.5t-141.5 58.5t-58.5 141.5v100h-600q-83 0 -141.5 58.5t-58.5 141.5q0 55 26 100h-1l600 900l1 -1q13 23 32 43q59 58 142 58h250v-6q51 -12 92 -52q58 -59 58 -142v-1200zM800 1019l-219 -319h219v319z" />
    <glyph glyph-name="five" unicode="5" horiz-adv-x="1300" 
d="M550 400q62 0 106 44t44 106t-44 106t-106 44h-550l200 900h700q83 0 141.5 -58.5t58.5 -141.5t-58.5 -141.5t-141.5 -58.5h-400l-21 -104q35 4 71 4q228 0 389 -161t161 -389t-161 -389t-389 -161t-389 161q-94 104 -120 184q-16 37 -16 80q0 83 58.5 141.5t141.5 58.5
t142 -58q43 -44 75.5 -105.5t107.5 -61.5z" />
    <glyph glyph-name="six" unicode="6" 
d="M458.5 741.5q-58.5 -58.5 -58.5 -141.5t58.5 -141.5t141.5 -58.5t141.5 58.5t58.5 141.5t-58.5 141.5t-141.5 58.5t-141.5 -58.5zM747 1183q156 -37 278 -158q175 -176 175 -425t-175.5 -424.5t-424.5 -175.5t-424.5 175.5t-175.5 424.5q0 137 29 217t46 108l400 575h1
q13 22 32 41q59 59 142 59t141.5 -58.5t58.5 -141.5q0 -55 -26 -100h1z" />
    <glyph glyph-name="seven" unicode="7" 
d="M1000 1600q83 0 141.5 -58.5t58.5 -141.5t-25 -125l-800 -1175h-1q-13 -22 -32 -41q-59 -59 -142 -59t-141.5 58.5t-58.5 141.5q0 55 26 100h-1l600 900h-425q-83 0 -141.5 58.5t-58.5 141.5t58.5 141.5t141.5 58.5h800z" />
    <glyph glyph-name="eight" unicode="8" horiz-adv-x="1300" 
d="M700 550q0 62 -44 106t-106 44t-106 -44t-44 -106t44 -106t106 -44t106 44t44 106zM600 1150q0 21 -14.5 35.5t-35.5 14.5t-35.5 -14.5t-14.5 -35.5t14.5 -35.5t35.5 -14.5t35.5 14.5t14.5 35.5zM945 933q155 -159 155 -383q0 -228 -161 -389t-389 -161t-389 161
t-161 389q0 224 155 383q-55 97 -55 217q0 186 132 318t318 132t318 -132t132 -318q0 -120 -55 -217z" />
    <glyph glyph-name="nine" unicode="9" 
d="M741.5 858.5q58.5 58.5 58.5 141.5t-58.5 141.5t-141.5 58.5t-141.5 -58.5t-58.5 -141.5t58.5 -141.5t141.5 -58.5t141.5 58.5zM453 417q-156 37 -277 159q-176 175 -176 424t175.5 424.5t424.5 175.5t424.5 -175.5t175.5 -424.5q0 -137 -29 -217t-46 -108l-400 -575h-1
q-13 -22 -32 -41q-59 -59 -142 -59t-141.5 58.5t-58.5 141.5q0 55 26 100h-1z" />
    <glyph glyph-name="colon" unicode=":" horiz-adv-x="600" 
d="M200 600q-83 0 -141.5 58.5t-58.5 141.5t58.5 141.5t141.5 58.5t141.5 -58.5t58.5 -141.5t-58.5 -141.5t-141.5 -58.5zM200 0q-83 0 -141.5 58.5t-58.5 141.5t58.5 141.5t141.5 58.5t141.5 -58.5t58.5 -141.5t-58.5 -141.5t-141.5 -58.5z" />
    <glyph glyph-name="semicolon" unicode=";" horiz-adv-x="600" 
d="M0 200q0 83 58.5 141.5t141.5 58.5t141.5 -58.5t58.5 -141.5v-400q0 -83 -58.5 -141.5t-141.5 -58.5t-141.5 58.5t-58.5 141.5v400zM200 600q-83 0 -141.5 58.5t-58.5 141.5t58.5 141.5t141.5 58.5t141.5 -58.5t58.5 -141.5t-58.5 -141.5t-141.5 -58.5z" />
    <glyph glyph-name="semicolon" unicode="&#x37e;" horiz-adv-x="600" 
d="M0 200q0 83 58.5 141.5t141.5 58.5t141.5 -58.5t58.5 -141.5v-400q0 -83 -58.5 -141.5t-141.5 -58.5t-141.5 58.5t-58.5 141.5v400zM200 600q-83 0 -141.5 58.5t-58.5 141.5t58.5 141.5t141.5 58.5t141.5 -58.5t58.5 -141.5t-58.5 -141.5t-141.5 -58.5z" />
    <glyph glyph-name="less" unicode="&#x3c;" horiz-adv-x="1600" 
d="M1200 1400q83 0 141.5 -58.5t58.5 -141.5t-58 -141q-50 -40 -117 -58v-1l-475 -200l475 -200v-1q67 -18 117 -57q58 -59 58 -142t-58.5 -141.5t-141.5 -58.5q-55 10 -100 25l-925 375q-67 19 -116 58q-59 59 -59 142t59 141q49 40 116 59l925 375q45 15 100 25z" />
    <glyph glyph-name="equal" unicode="=" horiz-adv-x="1200" 
d="M800 700q83 0 141.5 -58.5t58.5 -141.5t-58.5 -141.5t-141.5 -58.5h-600q-83 0 -141.5 58.5t-58.5 141.5t58.5 141.5t141.5 58.5h600zM800 1300q83 0 141.5 -58.5t58.5 -141.5t-58.5 -141.5t-141.5 -58.5h-600q-83 0 -141.5 58.5t-58.5 141.5t58.5 141.5t141.5 58.5h600z
" />
    <glyph glyph-name="greater" unicode="&#x3e;" horiz-adv-x="1600" 
d="M300 1375l925 -375q67 -19 116 -59q59 -58 59 -141t-59 -142q-49 -39 -116 -58l-925 -375q-45 -15 -100 -25q-83 0 -141.5 58.5t-58.5 141.5t59 142q49 39 116 57v1l475 200l-475 200v1q-67 18 -116 58q-59 58 -59 141t58.5 141.5t141.5 58.5q55 -10 100 -25z" />
    <glyph glyph-name="question" unicode="?" horiz-adv-x="1200" 
d="M500 0q-83 0 -141.5 58.5t-58.5 141.5t58.5 141.5t141.5 58.5t141.5 -58.5t58.5 -141.5t-58.5 -141.5t-141.5 -58.5zM500 600q-83 0 -141.5 58.5t-58.5 141.5t58.5 141.5t141.5 58.5q41 0 70.5 29.5t29.5 70.5t-29.5 70.5t-70.5 29.5t-70.5 -29.5t-29.5 -70.5
q0 -83 -58.5 -141.5t-141.5 -58.5t-141.5 58.5t-58.5 141.5q0 207 146.5 353.5t353.5 146.5t353.5 -146.5t146.5 -353.5t-146.5 -353.5t-353.5 -146.5z" />
    <glyph glyph-name="at" unicode="@" horiz-adv-x="1800" 
d="M800 500q-83 0 -141.5 58.5t-58.5 141.5v200q0 83 58.5 141.5t141.5 58.5t141.5 -58.5t58.5 -141.5h188q-25 103 -105 183q-117 117 -283 117t-283 -117t-117 -283t117 -283t283 -117h400q83 0 141.5 -58.5t58.5 -141.5t-58.5 -141.5t-141.5 -58.5h-400
q-331 0 -565.5 234.5t-234.5 565.5t234.5 565.5t565.5 234.5t565.5 -234.5t234.5 -565.5v-100q0 -83 -58.5 -141.5t-141.5 -58.5h-600z" />
    <glyph glyph-name="A" unicode="A" horiz-adv-x="1800" 
d="M425 200l-50 -100h-1q-13 -22 -32 -42q-59 -58 -142 -58t-141.5 58.5t-58.5 141.5q0 55 26 100h-1l600 1200h1q13 22 33 41q58 59 141 59t142 -59q19 -19 32 -41h1l600 -1200h-1q26 -45 26 -100q0 -83 -58.5 -141.5t-141.5 -58.5t-141 58q-20 20 -33 42h-1l-50 100h-750z
M975 600l-175 350l-175 -350h350z" />
    <glyph glyph-name="B" unicode="B" 
d="M700 600h-300v-200h300q41 0 70.5 29.5t29.5 70.5t-29.5 70.5t-70.5 29.5zM700 1000q41 0 70.5 29.5t29.5 70.5t-29.5 70.5t-70.5 29.5h-300v-200h300zM0 1400q0 83 58.5 141.5t141.5 58.5h500q207 0 353.5 -146.5t146.5 -353.5q0 -171 -99 -300q99 -129 99 -300
q0 -207 -146.5 -353.5t-353.5 -146.5h-500q-83 0 -141.5 58.5t-58.5 141.5v1200z" />
    <glyph glyph-name="C" unicode="C" horiz-adv-x="1650" 
d="M1376 1355q8 -6 16 -13q58 -59 58 -142t-58.5 -141.5t-141.5 -58.5t-141 59q-7 6 -13 14q-7 4 -13 10q-117 117 -283 117t-283 -117t-117 -283t117 -283t283 -117t283 117q6 6 12 10q6 7 14 15q58 58 141 58t141.5 -58.5t58.5 -141.5t-58 -141q-10 -10 -20 -18l-6 -6
q-235 -235 -566 -235t-565.5 234.5t-234.5 565.5t234.5 565.5t565.5 234.5t566 -234q5 -5 10 -11z" />
    <glyph glyph-name="D" unicode="D" 
d="M400 1200v-800q166 0 283 117t117 283t-117 283t-283 117zM400 0h-200q-83 0 -141.5 58.5t-58.5 141.5v1200q0 83 58.5 141.5t141.5 58.5h200q331 0 565.5 -234.5t234.5 -565.5t-234.5 -565.5t-565.5 -234.5z" />
    <glyph glyph-name="E" unicode="E" 
d="M800 1000q83 0 141.5 -58.5t58.5 -141.5t-58.5 -141.5t-141.5 -58.5h-400v-200h600q83 0 141.5 -58.5t58.5 -141.5t-58.5 -141.5t-141.5 -58.5h-800q-83 0 -141.5 58.5t-58.5 141.5v1200q0 83 58.5 141.5t141.5 58.5h800q83 0 141.5 -58.5t58.5 -141.5t-58.5 -141.5
t-141.5 -58.5h-600v-200h400z" />
    <glyph glyph-name="F" unicode="F" 
d="M800 1000q83 0 141.5 -58.5t58.5 -141.5t-58.5 -141.5t-141.5 -58.5h-400v-400q0 -83 -58.5 -141.5t-141.5 -58.5t-141.5 58.5t-58.5 141.5v1200q0 83 58.5 141.5t141.5 58.5h800q83 0 141.5 -58.5t58.5 -141.5t-58.5 -141.5t-141.5 -58.5h-600v-200h400z" />
    <glyph glyph-name="G" unicode="G" horiz-adv-x="1650" 
d="M1450 400q0 -83 -58 -141q-10 -10 -20 -18l-6 -6q-235 -235 -566 -235t-565.5 234.5t-234.5 565.5t234.5 565.5t565.5 234.5t566 -234q5 -5 10 -11q8 -6 16 -13q58 -59 58 -142t-58.5 -141.5t-141.5 -58.5t-141 59q-7 6 -13 14q-7 4 -13 10q-117 117 -283 117t-283 -117
t-117 -283t117 -283t283 -117q143 0 250 87v13h-250q-83 0 -141.5 58.5t-58.5 141.5t58.5 141.5t141.5 58.5h450q83 0 141.5 -58.5t58.5 -141.5v-300z" />
    <glyph glyph-name="H" unicode="H" 
d="M400 600v-400q0 -83 -58.5 -141.5t-141.5 -58.5t-141.5 58.5t-58.5 141.5v1200q0 83 58.5 141.5t141.5 58.5t141.5 -58.5t58.5 -141.5v-400h400v400q0 83 58.5 141.5t141.5 58.5t141.5 -58.5t58.5 -141.5v-1200q0 -83 -58.5 -141.5t-141.5 -58.5t-141.5 58.5t-58.5 141.5
v400h-400z" />
    <glyph glyph-name="I" unicode="I" horiz-adv-x="600" 
d="M400 200q0 -83 -58.5 -141.5t-141.5 -58.5t-141.5 58.5t-58.5 141.5v1200q0 83 58.5 141.5t141.5 58.5t141.5 -58.5t58.5 -141.5v-1200z" />
    <glyph glyph-name="J" unicode="J" horiz-adv-x="1000" 
d="M200 400q83 0 141.5 58.5t58.5 141.5v800q0 83 58.5 141.5t141.5 58.5t141.5 -58.5t58.5 -141.5v-800q0 -249 -175.5 -424.5t-424.5 -175.5q-83 0 -141.5 58.5t-58.5 141.5t58.5 141.5t141.5 58.5z" />
    <glyph glyph-name="K" unicode="K" 
d="M400 1113l434 399q11 16 25 30q58 58 141 58t141.5 -58.5t58.5 -141.5t-58 -141q-21 -21 -44 -34l-461 -425l461 -425q23 -13 44 -33q58 -59 58 -142t-58.5 -141.5t-141.5 -58.5t-141 59q-14 13 -25 29l-434 399v-287q0 -83 -58.5 -141.5t-141.5 -58.5t-141.5 58.5
t-58.5 141.5v1200q0 83 58.5 141.5t141.5 58.5t141.5 -58.5t58.5 -141.5v-287z" />
    <glyph glyph-name="L" unicode="L" 
d="M200 0q-83 0 -141.5 58.5t-58.5 141.5v1200q0 83 58.5 141.5t141.5 58.5t141.5 -58.5t58.5 -141.5v-1000h600q83 0 141.5 -58.5t58.5 -141.5t-58.5 -141.5t-141.5 -58.5h-800z" />
    <glyph glyph-name="M" unicode="M" horiz-adv-x="2000" 
d="M900 825l200 600q19 67 58 116q59 59 142 59t141 -59q40 -49 59 -116l275 -1125q15 -45 25 -100q0 -83 -58.5 -141.5t-141.5 -58.5t-142 58q-39 50 -57 117h-1l-125 525l-175 -525h-1q0 -1 -1 -3q-8 -65 -57 -114q-58 -58 -141 -58t-146 63q-44 47 -52 109q-1 2 -1 3h-1
l-175 525l-125 -525h-1q-18 -67 -58 -117q-58 -58 -141 -58t-141.5 58.5t-58.5 141.5q10 55 25 100l275 1125q19 67 58 116q59 59 142 59t141 -59q40 -49 59 -116z" />
    <glyph glyph-name="N" unicode="N" 
d="M800 830v570q0 83 58.5 141.5t141.5 58.5t141.5 -58.5t58.5 -141.5v-1200q0 -83 -58.5 -141.5t-141.5 -58.5t-141 59q-20 19 -33 41h-1l-425 670v-570q0 -83 -58.5 -141.5t-141.5 -58.5t-141.5 58.5t-58.5 141.5v1200q0 83 58.5 141.5t141.5 58.5t142 -58q19 -20 32 -42
h1z" />
    <glyph glyph-name="O" unicode="O" horiz-adv-x="1800" 
d="M800 0q-331 0 -565.5 234.5t-234.5 565.5t234.5 565.5t565.5 234.5t565.5 -234.5t234.5 -565.5t-234.5 -565.5t-565.5 -234.5zM1083 517q117 117 117 283t-117 283t-283 117t-283 -117t-117 -283t117 -283t283 -117t283 117z" />
    <glyph glyph-name="P" unicode="P" 
d="M700 1200h-300v-200h300q41 0 70.5 29.5t29.5 70.5t-29.5 70.5t-70.5 29.5zM700 600h-300v-400q0 -83 -58.5 -141.5t-141.5 -58.5t-141.5 58.5t-58.5 141.5v1200q0 83 58.5 141.5t141.5 58.5h500q207 0 353.5 -146.5t146.5 -353.5t-146.5 -353.5t-353.5 -146.5z" />
    <glyph glyph-name="Q" unicode="Q" horiz-adv-x="1800" 
d="M1179 669q21 61 21 131q0 166 -117 283t-283 117t-283 -117t-117 -283t117 -283t283 -117q45 0 86 8l-77 51q-59 58 -59 141t58.5 141.5t141.5 58.5t142 -58zM1209 111q-182 -111 -409 -111q-331 0 -565.5 234.5t-234.5 565.5t234.5 565.5t565.5 234.5t565.5 -234.5
t234.5 -565.5q0 -230 -114 -414l12 -11q23 -13 44 -33q58 -59 58 -142t-58.5 -141.5t-141.5 -58.5t-141 59q-14 13 -25 29z" />
    <glyph glyph-name="R" unicode="R" 
d="M700 1200h-300v-200h300q41 0 70.5 29.5t29.5 70.5t-29.5 70.5t-70.5 29.5zM492 600h-92v-400q0 -83 -58.5 -141.5t-141.5 -58.5t-141.5 58.5t-58.5 141.5v1200q0 83 58.5 141.5t141.5 58.5h500q207 0 353.5 -146.5t146.5 -353.5t-146 -353q-51 -51 -110 -85l231 -362h-1
q26 -45 26 -100q0 -83 -58.5 -141.5t-141.5 -58.5t-141 59q-20 19 -33 41h-1z" />
    <glyph glyph-name="S" unicode="S" horiz-adv-x="1200" 
d="M25 375q0 83 58.5 141.5t141.5 58.5t142 -58q30 -31 45 -68q8 -10 18 -19q29 -30 70 -30t70.5 29.5t29.5 70.5t-29.5 70.5t-70.5 29.5q-207 0 -353.5 146.5t-146.5 353.5t146.5 353.5t353.5 146.5t341 -137.5t134 -237.5q0 -83 -58.5 -141.5t-141.5 -58.5t-141 59
q-31 30 -46 67q-8 10 -17 20q-30 29 -71 29t-70.5 -29.5t-29.5 -70.5t29.5 -70.5t70.5 -29.5q207 0 353.5 -146.5t146.5 -353.5t-146.5 -353.5t-353.5 -146.5t-341 137.5t-134 237.5z" />
    <glyph glyph-name="T" unicode="T" 
d="M400 1200h-200q-83 0 -141.5 58.5t-58.5 141.5t58.5 141.5t141.5 58.5h800q83 0 141.5 -58.5t58.5 -141.5t-58.5 -141.5t-141.5 -58.5h-200v-1000q0 -83 -58.5 -141.5t-141.5 -58.5t-141.5 58.5t-58.5 141.5v1000z" />
    <glyph glyph-name="U" unicode="U" 
d="M0 1400q0 83 58.5 141.5t141.5 58.5t141.5 -58.5t58.5 -141.5v-800q0 -83 58.5 -141.5t141.5 -58.5t141.5 58.5t58.5 141.5v800q0 83 58.5 141.5t141.5 58.5t141.5 -58.5t58.5 -141.5v-800q0 -249 -175.5 -424.5t-424.5 -175.5t-424.5 175.5t-175.5 424.5v800z" />
    <glyph glyph-name="V" unicode="V" horiz-adv-x="1800" 
d="M800 650l425 850h1q13 22 33 42q58 58 141 58t141.5 -58.5t58.5 -141.5q0 -55 -26 -100h1l-600 -1200h-1q-13 -22 -32 -41q-59 -59 -142 -59t-141 59q-20 19 -33 41h-1l-600 1200h1q-26 45 -26 100q0 83 58.5 141.5t141.5 58.5t142 -58q19 -20 32 -42h1z" />
    <glyph glyph-name="W" unicode="W" horiz-adv-x="2200" 
d="M1000 775l-200 -600q-19 -67 -58 -116q-59 -59 -142 -59t-141 59q-40 49 -59 116l-375 1125q-15 45 -25 100q0 83 58.5 141.5t141.5 58.5t142 -58q39 -50 57 -117h1l200 -600l200 600h1q0 1 1 3q8 65 57 114q58 58 141 58t146 -63q44 -47 52 -109q1 -2 1 -3h1l200 -600
l200 600h1q18 67 58 117q58 58 141 58t141.5 -58.5t58.5 -141.5q-10 -55 -25 -100l-375 -1125q-19 -67 -58 -116q-59 -59 -142 -59t-141 59q-40 49 -59 116z" />
    <glyph glyph-name="X" unicode="X" 
d="M847 793l328 -493h-1q26 -45 26 -100q0 -83 -58.5 -141.5t-141.5 -58.5t-141 59q-20 19 -33 41h-1l-225 330l-225 -330h-1q-13 -22 -32 -41q-59 -59 -142 -59t-141.5 58.5t-58.5 141.5q0 55 26 100h-1l328 493l-328 482q-25 42 -25 125t58.5 141.5t141.5 58.5t142 -58
q19 -20 32 -43l1 1l225 -337l225 337l1 -1q13 23 32 43q59 58 142 58t141.5 -58.5t58.5 -141.5t-25 -125z" />
    <glyph glyph-name="Y" unicode="Y" 
d="M400 724l-47 69l-328 482q-25 42 -25 125t58.5 141.5t141.5 58.5t142 -58q19 -20 32 -43l1 1l225 -337l225 337l1 -1q13 23 32 43q59 58 142 58t141.5 -58.5t58.5 -141.5t-25 -125l-328 -482l-47 -69v-524q0 -83 -58.5 -141.5t-141.5 -58.5t-141.5 58.5t-58.5 141.5v524z
" />
    <glyph glyph-name="Z" unicode="Z" 
d="M200 1200q-83 0 -141.5 58.5t-58.5 141.5t58.5 141.5t141.5 58.5h800q83 0 141.5 -58.5t58.5 -141.5t-25 -125l-596 -875h421q83 0 141.5 -58.5t58.5 -141.5t-58.5 -141.5t-141.5 -58.5h-800q-83 0 -141.5 58.5t-58.5 141.5q0 55 26 100h-1l600 900h-425z" />
    <glyph glyph-name="bracketleft" unicode="[" horiz-adv-x="1000" 
d="M400 0h200q83 0 141.5 -58.5t58.5 -141.5t-58.5 -141.5t-141.5 -58.5h-400q-83 0 -141.5 58.5t-58.5 141.5v2000q0 83 58.5 141.5t141.5 58.5h400q83 0 141.5 -58.5t58.5 -141.5t-58.5 -141.5t-141.5 -58.5h-200v-1600z" />
    <glyph glyph-name="backslash" unicode="\" 
d="M1174 300q26 -45 26 -100q0 -83 -58.5 -141.5t-141.5 -58.5t-141 59q-20 19 -33 41h-1l-800 1175q-25 42 -25 125t58.5 141.5t141.5 58.5t142 -58q19 -20 32 -43l1 1l800 -1200h-1z" />
    <glyph glyph-name="bracketright" unicode="]" horiz-adv-x="1000" 
d="M400 1600h-200q-83 0 -141.5 58.5t-58.5 141.5t58.5 141.5t141.5 58.5h400q83 0 141.5 -58.5t58.5 -141.5v-2000q0 -83 -58.5 -141.5t-141.5 -58.5h-400q-83 0 -141.5 58.5t-58.5 141.5t58.5 141.5t141.5 58.5h200v1600z" />
    <glyph glyph-name="asciicircum" unicode="^" horiz-adv-x="1500" 
d="M651 2033l-309 -274q-59 -59 -142 -59t-141.5 58.5t-58.5 141.5t59 142l450 400q58 58 141 58t142 -58l450 -400q58 -59 58 -142t-58.5 -141.5t-141.5 -58.5t-141 59z" />
    <glyph glyph-name="underscore" unicode="_" horiz-adv-x="1200" 
d="M800 -200q83 0 141.5 -58.5t58.5 -141.5t-58.5 -141.5t-141.5 -58.5h-600q-83 0 -141.5 58.5t-58.5 141.5t58.5 141.5t141.5 58.5h600z" />
    <glyph glyph-name="grave" unicode="`" horiz-adv-x="1200" 
d="M59 2159q-59 58 -59 141t58.5 141.5t141.5 58.5q50 0 142 -58l600 -400q58 -59 58 -142t-58.5 -141.5t-141.5 -58.5q-50 0 -141 59z" />
    <glyph glyph-name="a" unicode="a" horiz-adv-x="1600" 
d="M912 488q88 88 88 212t-88 212t-212 88t-212 -88t-88 -212t88 -212t212 -88t212 88zM1037 84q-151 -84 -337 -84q-290 0 -495 205t-205 495t205 495t495 205q186 0 337 -84q9 13 22 26q58 58 141 58t141.5 -58.5t58.5 -141.5v-1000q0 -83 -58.5 -141.5t-141.5 -58.5
t-141 59q-13 12 -22 25z" />
    <glyph glyph-name="b" unicode="b" horiz-adv-x="1600" 
d="M912 488q88 88 88 212t-88 212t-212 88t-212 -88t-88 -212t88 -212t212 -88t212 88zM400 1335q136 65 300 65q290 0 495 -205t205 -495t-205 -495t-495 -205q-186 0 -337 84q-9 -13 -21 -25q-59 -59 -142 -59t-141.5 58.5t-58.5 141.5v1200q0 83 58.5 141.5t141.5 58.5
t141.5 -58.5t58.5 -141.5v-65z" />
    <glyph glyph-name="c" unicode="c" horiz-adv-x="1500" 
d="M1237 1146q2 -2 5 -4q58 -59 58 -142t-58.5 -141.5t-141.5 -58.5t-141 59q-21 20 -34 43q-7 4 -13 10q-88 88 -212 88t-212 -88t-88 -212t88 -212t212 -88t212 88q7 7 14 11q13 23 33 43q58 58 141 58t141.5 -58.5t58.5 -141.5t-58 -141l-4 -4q-17 -24 -43 -50
q-205 -205 -495 -205t-495 205t-205 495t205 495t495 205t495 -205q26 -26 42 -49z" />
    <glyph glyph-name="d" unicode="d" horiz-adv-x="1600" 
d="M700 400q124 0 212 88t88 212t-88 212t-212 88t-212 -88t-88 -212t88 -212t212 -88zM1000 1400q0 83 58.5 141.5t141.5 58.5t141.5 -58.5t58.5 -141.5v-1200q0 -83 -58.5 -141.5t-141.5 -58.5t-141 59q-13 12 -22 25q-151 -84 -337 -84q-290 0 -495 205t-205 495t205 495
t495 205q164 0 300 -65v65z" />
    <glyph glyph-name="e" unicode="e" horiz-adv-x="1600" 
d="M477 500q5 -6 11 -12q88 -88 212 -88h300q83 0 141.5 -58.5t58.5 -141.5t-58.5 -141.5t-141.5 -58.5h-300q-290 0 -495 205t-205 495t205 495t495 205t495 -205t205 -495q0 -83 -58.5 -141.5t-141.5 -58.5h-723zM923 900q-5 6 -11 12q-88 88 -212 88t-212 -88
q-6 -6 -11 -12h446z" />
    <glyph glyph-name="f" unicode="f" horiz-adv-x="1350" 
d="M0 1000q0 249 175.5 424.5t424.5 175.5t425 -175q45 -46 78 -95q47 -55 47 -130q0 -83 -58.5 -141.5t-141.5 -58.5t-141 59l-67 83q-59 58 -142 58t-141.5 -58.5t-58.5 -141.5v-100h100q83 0 141.5 -58.5t58.5 -141.5t-58.5 -141.5t-141.5 -58.5h-100v-300
q0 -83 -58.5 -141.5t-141.5 -58.5t-141.5 58.5t-58.5 141.5v800z" />
    <glyph glyph-name="g" unicode="g" horiz-adv-x="1600" 
d="M912 488q88 88 88 212t-88 212t-212 88t-212 -88t-88 -212t88 -212t212 -88t212 88zM1000 65q-136 -65 -300 -65q-290 0 -495 205t-205 495t205 495t495 205q186 0 337 -84q9 13 22 26q58 58 141 58t141.5 -58.5t58.5 -141.5v-1200q0 -249 -175.5 -424.5t-424.5 -175.5
q-83 0 -141.5 58.5t-58.5 141.5t58.5 141.5t141.5 58.5t141.5 58.5t58.5 141.5v65z" />
    <glyph glyph-name="h" unicode="h" 
d="M400 1368q93 32 200 32q249 0 424.5 -175.5t175.5 -424.5v-600q0 -83 -58.5 -141.5t-141.5 -58.5t-141.5 58.5t-58.5 141.5v600q0 83 -58.5 141.5t-141.5 58.5t-141.5 -58.5t-58.5 -141.5v-600q0 -83 -58.5 -141.5t-141.5 -58.5t-141.5 58.5t-58.5 141.5v1200
q0 83 58.5 141.5t141.5 58.5t141.5 -58.5t58.5 -141.5v-32z" />
    <glyph glyph-name="i" unicode="i" horiz-adv-x="600" 
d="M400 200q0 -83 -58.5 -141.5t-141.5 -58.5t-141.5 58.5t-58.5 141.5v1000q0 83 58.5 141.5t141.5 58.5t141.5 -58.5t58.5 -141.5v-1000zM200 1600q-83 0 -141.5 58.5t-58.5 141.5t58.5 141.5t141.5 58.5t141.5 -58.5t58.5 -141.5t-58.5 -141.5t-141.5 -58.5z" />
    <glyph glyph-name="j" unicode="j" horiz-adv-x="600" 
d="M-200 -200q83 0 141.5 58.5t58.5 141.5v1200q0 83 58.5 141.5t141.5 58.5t141.5 -58.5t58.5 -141.5v-1200q0 -249 -175.5 -424.5t-424.5 -175.5q-83 0 -141.5 58.5t-58.5 141.5t58.5 141.5t141.5 58.5zM200 1600q-83 0 -141.5 58.5t-58.5 141.5t58.5 141.5t141.5 58.5
t141.5 -58.5t58.5 -141.5t-58.5 -141.5t-141.5 -58.5z" />
    <glyph glyph-name="k" unicode="k" 
d="M400 768l459 574q58 58 141 58t141.5 -58.5t58.5 -141.5t-58 -141l-293 -359l293 -358q58 -59 58 -142t-58.5 -141.5t-141.5 -58.5t-141 59l-259 326l-228 -288q-12 -20 -30 -38q-59 -59 -142 -59t-141.5 58.5t-58.5 141.5v1200q0 83 58.5 141.5t141.5 58.5t141.5 -58.5
t58.5 -141.5v-632z" />
    <glyph glyph-name="l" unicode="l" horiz-adv-x="600" 
d="M400 200q0 -83 -58.5 -141.5t-141.5 -58.5t-141.5 58.5t-58.5 141.5v1200q0 83 58.5 141.5t141.5 58.5t141.5 -58.5t58.5 -141.5v-1200z" />
    <glyph glyph-name="m" unicode="m" horiz-adv-x="1800" 
d="M1600 200q0 -83 -58.5 -141.5t-141.5 -58.5t-141.5 58.5t-58.5 141.5v700q0 41 -29.5 70.5t-70.5 29.5t-70.5 -29.5t-29.5 -70.5v-700q0 -83 -58.5 -141.5t-141.5 -58.5t-141.5 58.5t-58.5 141.5v700q0 41 -29.5 70.5t-70.5 29.5t-70.5 -29.5t-29.5 -70.5v-700
q0 -83 -58.5 -141.5t-141.5 -58.5t-141.5 58.5t-58.5 141.5v1000q0 83 58.5 141.5t141.5 58.5q64 0 113 -35q86 35 187 35q171 0 300 -99q129 99 300 99q207 0 353.5 -146.5t146.5 -353.5v-700z" />
    <glyph glyph-name="n" unicode="n" 
d="M340 1343q118 57 260 57q249 0 424.5 -175.5t175.5 -424.5v-600q0 -83 -58.5 -141.5t-141.5 -58.5t-141.5 58.5t-58.5 141.5v600q0 83 -58.5 141.5t-141.5 58.5t-141.5 -58.5t-58.5 -141.5v-600q0 -83 -58.5 -141.5t-141.5 -58.5t-141.5 58.5t-58.5 141.5v1000
q0 83 58.5 141.5t141.5 58.5q82 0 140 -57z" />
    <glyph glyph-name="o" unicode="o" horiz-adv-x="1600" 
d="M700 0q-290 0 -495 205t-205 495t205 495t495 205t495 -205t205 -495t-205 -495t-495 -205zM912 488q88 88 88 212t-88 212t-212 88t-212 -88t-88 -212t88 -212t212 -88t212 88z" />
    <glyph glyph-name="p" unicode="p" horiz-adv-x="1600" 
d="M912 488q88 88 88 212t-88 212t-212 88t-212 -88t-88 -212t88 -212t212 -88t212 88zM363 1316q151 84 337 84q290 0 495 -205t205 -495t-205 -495t-495 -205q-164 0 -300 65v-465q0 -83 -58.5 -141.5t-141.5 -58.5t-141.5 58.5t-58.5 141.5v1600q0 83 58.5 141.5
t141.5 58.5t142 -58q12 -13 21 -26z" />
    <glyph glyph-name="q" unicode="q" horiz-adv-x="1600" 
d="M700 400q124 0 212 88t88 212t-88 212t-212 88t-212 -88t-88 -212t88 -212t212 -88zM1059 1342q58 58 141 58t141.5 -58.5t58.5 -141.5v-1600q0 -83 -58.5 -141.5t-141.5 -58.5t-141.5 58.5t-58.5 141.5v465q-136 -65 -300 -65q-290 0 -495 205t-205 495t205 495t495 205
q186 0 337 -84q9 13 22 26z" />
    <glyph glyph-name="r" unicode="r" horiz-adv-x="1350" 
d="M340 1343q118 57 260 57q249 0 425 -175q45 -46 78 -95q47 -55 47 -130q0 -83 -58.5 -141.5t-141.5 -58.5t-141 59l-67 83q-59 58 -142 58t-141.5 -58.5t-58.5 -141.5v-600q0 -83 -58.5 -141.5t-141.5 -58.5t-141.5 58.5t-58.5 141.5v1000q0 83 58.5 141.5t141.5 58.5
q82 0 140 -57z" />
    <glyph glyph-name="s" unicode="s" horiz-adv-x="1150" 
d="M450 400h50q21 0 35.5 14.5t14.5 35.5t-14.5 35.5t-35.5 14.5h-50q-186 0 -318 132t-132 318t132 318t318 132h150q149 0 264 -85q7 -5 13 -10q21 -17 41 -37q-3 -1 -5 -1q37 -51 37 -117q0 -83 -58.5 -141.5t-141.5 -58.5q-50 0 -100 25t-150 25h-50q-21 0 -35.5 -14.5
t-14.5 -35.5t14.5 -35.5t35.5 -14.5h50q186 0 318 -132t132 -318t-132 -318t-318 -132h-150q-149 0 -264 85q-7 5 -13 10q-21 17 -41 37q1 2 3 5q-35 49 -35 113q0 83 58.5 141.5t141.5 58.5q48 0 100 -25q50 -25 150 -25z" />
    <glyph glyph-name="t" unicode="t" horiz-adv-x="1350" 
d="M0 1400q0 83 58.5 141.5t141.5 58.5t141.5 -58.5t58.5 -141.5h100q83 0 141.5 -58.5t58.5 -141.5t-58.5 -141.5t-141.5 -58.5h-100v-400q0 -83 58.5 -141.5t141.5 -58.5t142 58l67 83q58 59 141 59t141.5 -58.5t58.5 -141.5q0 -75 -47 -130q-33 -49 -78 -95
q-176 -175 -425 -175t-424.5 175.5t-175.5 424.5v800z" />
    <glyph glyph-name="u" unicode="u" 
d="M860 57q-118 -57 -260 -57q-249 0 -424.5 175.5t-175.5 424.5v600q0 83 58.5 141.5t141.5 58.5t141.5 -58.5t58.5 -141.5v-600q0 -83 58.5 -141.5t141.5 -58.5t141.5 58.5t58.5 141.5v600q0 83 58.5 141.5t141.5 58.5t141.5 -58.5t58.5 -141.5v-1000q0 -83 -58.5 -141.5
t-141.5 -58.5q-82 0 -140 57z" />
    <glyph glyph-name="v" unicode="v" 
d="M0 1200q0 83 58.5 141.5t141.5 58.5t142 -58q39 -50 57 -117h1l200 -475l200 475h1q18 67 58 117q58 58 141 58t141.5 -58.5t58.5 -141.5q-10 -55 -25 -100l-375 -925q-19 -67 -58 -116q-59 -59 -142 -59t-141 59q-40 49 -59 116l-375 925q-15 45 -25 100z" />
    <glyph glyph-name="w" unicode="w" horiz-adv-x="2200" 
d="M1000 668l-200 -493q-19 -67 -58 -116q-59 -59 -142 -59t-141 59q-40 49 -59 116l-375 925q-15 45 -25 100q0 83 58.5 141.5t141.5 58.5t142 -58q39 -50 57 -117h1l200 -475l200 475h1q0 1 1 3q8 65 57 114q58 58 141 58t137 -55q53 -55 61 -117q1 -2 1 -3h1l200 -475
l200 475h1q18 67 58 117q58 58 141 58t141.5 -58.5t58.5 -141.5q-10 -55 -25 -100l-375 -925q-19 -67 -58 -116q-59 -59 -142 -59t-141 59q-40 49 -59 116z" />
    <glyph glyph-name="x" unicode="x" 
d="M849 700l293 -358q58 -59 58 -142t-58.5 -141.5t-141.5 -58.5t-141 59l-259 326l-258 -326q-59 -59 -142 -59t-141.5 58.5t-58.5 141.5t59 142l292 358l-292 359q-59 58 -59 141t58.5 141.5t141.5 58.5t142 -58l258 -327l259 327q58 58 141 58t141.5 -58.5t58.5 -141.5
t-58 -141z" />
    <glyph glyph-name="y" unicode="y" 
d="M1200 1200q0 -83 -25 -125l-650 -1575h-1q-13 -22 -32 -41q-59 -59 -142 -59t-141.5 58.5t-58.5 141.5q0 55 26 100h-1l209 514l-359 886q-15 45 -25 100q0 83 58.5 141.5t141.5 58.5t142 -58q39 -50 57 -117h1l200 -475l44 106l156 369h1q18 67 58 117q58 58 141 58
t141.5 -58.5t58.5 -141.5z" />
    <glyph glyph-name="z" unicode="z" 
d="M1000 400q83 0 141.5 -58.5t58.5 -141.5t-58.5 -141.5t-141.5 -58.5h-800q-83 0 -141.5 58.5t-58.5 141.5t59 142l529 658h-388q-83 0 -141.5 58.5t-58.5 141.5t58.5 141.5t141.5 58.5h800q83 0 141.5 -58.5t58.5 -141.5t-58 -141l-530 -659h388z" />
    <glyph glyph-name="braceleft" unicode="{" horiz-adv-x="1350" 
d="M750 1100q0 -171 -99 -300q99 -129 99 -300v-250q0 -83 58.5 -141.5t141.5 -58.5t141.5 -58.5t58.5 -141.5t-58.5 -141.5t-141.5 -58.5q-249 0 -424.5 175.5t-175.5 424.5v250q0 41 -29.5 70.5t-70.5 29.5h-50q-83 0 -141.5 58.5t-58.5 141.5t58.5 141.5t141.5 58.5h50
q41 0 70.5 29.5t29.5 70.5v350q0 249 175.5 424.5t424.5 175.5q83 0 141.5 -58.5t58.5 -141.5t-58.5 -141.5t-141.5 -58.5t-141.5 -58.5t-58.5 -141.5v-350z" />
    <glyph glyph-name="bar" unicode="|" horiz-adv-x="600" 
d="M400 -200q0 -83 -58.5 -141.5t-141.5 -58.5t-141.5 58.5t-58.5 141.5v2000q0 83 58.5 141.5t141.5 58.5t141.5 -58.5t58.5 -141.5v-2000z" />
    <glyph glyph-name="braceright" unicode="}" horiz-adv-x="1350" 
d="M400 1450q0 83 -58.5 141.5t-141.5 58.5t-141.5 58.5t-58.5 141.5t58.5 141.5t141.5 58.5q249 0 424.5 -175.5t175.5 -424.5v-350q0 -41 29.5 -70.5t70.5 -29.5h50q83 0 141.5 -58.5t58.5 -141.5t-58.5 -141.5t-141.5 -58.5h-50q-41 0 -70.5 -29.5t-29.5 -70.5v-250
q0 -249 -175.5 -424.5t-424.5 -175.5q-83 0 -141.5 58.5t-58.5 141.5t58.5 141.5t141.5 58.5t141.5 58.5t58.5 141.5v250q0 171 99 300q-99 129 -99 300v350z" />
    <glyph glyph-name="asciitilde" unicode="~" horiz-adv-x="1700" 
d="M1100 2200q0 83 58.5 141.5t141.5 58.5t141.5 -58.5t58.5 -141.5q0 -207 -146.5 -353.5t-353.5 -146.5q-225 0 -325 150q-75 91 -104.5 120.5t-70.5 29.5t-70.5 -29.5t-29.5 -70.5q0 -83 -58.5 -141.5t-141.5 -58.5t-141.5 58.5t-58.5 141.5q0 207 146.5 353.5
t353.5 146.5q225 0 325 -150q75 -91 104.5 -120.5t70.5 -29.5t70.5 29.5t29.5 70.5z" />
    <glyph glyph-name="exclamdown" unicode="&#xa1;" horiz-adv-x="600" 
d="M400 200q0 -83 -58.5 -141.5t-141.5 -58.5t-141.5 58.5t-58.5 141.5v600q0 83 58.5 141.5t141.5 58.5t141.5 -58.5t58.5 -141.5v-600zM200 1200q-83 0 -141.5 58.5t-58.5 141.5t58.5 141.5t141.5 58.5t141.5 -58.5t58.5 -141.5t-58.5 -141.5t-141.5 -58.5z" />
    <glyph glyph-name="cent" unicode="&#xa2;" horiz-adv-x="1500" 
d="M700 500q124 0 212 88q7 7 14 11q13 23 33 43q58 58 141 58t141.5 -58.5t58.5 -141.5t-58 -141l-4 -4q-17 -24 -43 -50q-130 -130 -295 -178v-27q0 -83 -58.5 -141.5t-141.5 -58.5t-141.5 58.5t-58.5 141.5v27q-165 48 -295 178q-205 205 -205 495t205 495
q130 130 295 178v27q0 83 58.5 141.5t141.5 58.5t141.5 -58.5t58.5 -141.5v-27q165 -48 295 -178q26 -26 42 -49q2 -2 5 -4q58 -59 58 -142t-58.5 -141.5t-141.5 -58.5t-141 59q-21 20 -34 43q-7 4 -13 10q-88 88 -212 88t-212 -88t-88 -212t88 -212t212 -88z" />
    <glyph glyph-name="sterling" unicode="&#xa3;" horiz-adv-x="1550" 
d="M1150 400q83 0 141.5 -58.5t58.5 -141.5t-58.5 -141.5t-141.5 -58.5h-950q-83 0 -141.5 58.5t-58.5 141.5t58.5 141.5t141.5 58.5v100q-83 0 -141.5 58.5t-58.5 141.5t58.5 141.5t141.5 58.5v100q0 249 175.5 424.5t424.5 175.5t425 -175q45 -46 78 -95q47 -55 47 -130
q0 -83 -58.5 -141.5t-141.5 -58.5t-141 59l-67 83q-59 58 -142 58t-141.5 -58.5t-58.5 -141.5v-100h100q83 0 141.5 -58.5t58.5 -141.5t-58.5 -141.5t-141.5 -58.5h-100v-100h550z" />
    <glyph glyph-name="currency" unicode="&#xa4;" 
d="M741.5 658.5q58.5 58.5 58.5 141.5t-58.5 141.5t-141.5 58.5t-141.5 -58.5t-58.5 -141.5t58.5 -141.5t141.5 -58.5t141.5 58.5zM800 1368l59 74q58 58 141 58t141.5 -58.5t58.5 -141.5t-58 -141l-32 -40q90 -140 90 -319q0 -178 -90 -319l32 -39q58 -59 58 -142
t-58.5 -141.5t-141.5 -58.5t-141 59l-58 73q-94 -32 -201 -32t-200 32l-58 -73q-59 -59 -142 -59t-141.5 58.5t-58.5 141.5t59 142l31 38q-90 141 -90 320t91 320l-32 39q-59 58 -59 141t58.5 141.5t141.5 58.5t142 -58l58 -74q94 32 200 32q107 0 200 -32z" />
    <glyph glyph-name="yen" unicode="&#xa5;" 
d="M774 100q-13 -22 -32 -41q-59 -59 -142 -59t-141 59q-20 19 -33 41h-126q-83 0 -141.5 58.5t-58.5 141.5t58.5 141.5t141.5 58.5h100v100h-100q-83 0 -141.5 58.5t-58.5 141.5t59 142q28 28 63 43l-197 290q-25 42 -25 125t58.5 141.5t141.5 58.5t142 -58q19 -20 32 -43
l1 1l225 -337l225 337l1 -1q13 23 32 43q59 58 142 58t141.5 -58.5t58.5 -141.5t-25 -125l-197 -290q35 -15 64 -43q58 -59 58 -142t-58.5 -141.5t-141.5 -58.5h-100v-100h100q83 0 141.5 -58.5t58.5 -141.5t-58.5 -141.5t-141.5 -58.5h-126z" />
    <glyph glyph-name="brokenbar" unicode="&#xa6;" horiz-adv-x="600" 
d="M400 -200q0 -83 -58.5 -141.5t-141.5 -58.5t-141.5 58.5t-58.5 141.5v600q0 83 58.5 141.5t141.5 58.5t141.5 -58.5t58.5 -141.5v-600zM400 1200q0 -83 -58.5 -141.5t-141.5 -58.5t-141.5 58.5t-58.5 141.5v600q0 83 58.5 141.5t141.5 58.5t141.5 -58.5t58.5 -141.5v-600
z" />
    <glyph glyph-name="section" unicode="&#xa7;" horiz-adv-x="1650" 
d="M841.5 658.5q58.5 58.5 58.5 141.5t-58.5 141.5t-141.5 58.5t-141.5 -58.5t-58.5 -141.5t58.5 -141.5t141.5 -58.5t141.5 58.5zM111 919q-111 168 -111 381q0 290 205 495t495 205t495 -205q26 -26 42 -49q2 -2 5 -4q58 -59 58 -142t-58.5 -141.5t-141.5 -58.5t-141 59
q-21 20 -34 43q-7 4 -13 10q-88 88 -212 88t-212 -88q-80 -80 -87 -190q133 78 299 78q249 0 424.5 -175.5t175.5 -424.5q0 -62 -11 -119q111 -168 111 -381q0 -290 -205 -495t-495 -205t-495 205q-26 26 -43 50l-4 4q-58 58 -58 141t58.5 141.5t141.5 58.5t141 -58
q20 -20 33 -43q7 -4 14 -11q88 -88 212 -88t212 88q80 80 87 190q-133 -78 -299 -78q-249 0 -424.5 175.5t-175.5 424.5q0 62 11 119z" />
    <glyph glyph-name="dieresis" unicode="&#xa8;" horiz-adv-x="1200" 
d="M200 1800q-83 0 -141.5 58.5t-58.5 141.5t58.5 141.5t141.5 58.5t141.5 -58.5t58.5 -141.5t-58.5 -141.5t-141.5 -58.5zM800 1800q-83 0 -141.5 58.5t-58.5 141.5t58.5 141.5t141.5 58.5t141.5 -58.5t58.5 -141.5t-58.5 -141.5t-141.5 -58.5z" />
    <glyph glyph-name="copyright" unicode="&#xa9;" horiz-adv-x="1500" 
d="M919 1273l2 -2q29 -29 29 -71q0 -41 -29 -70.5t-71 -29.5q-41 0 -70 30q-11 10 -17 21q-4 2 -7 5q-44 44 -106 44t-106 -44t-44 -106t44 -106t106 -44t106 44q4 4 7 6q7 11 17 21q29 29 70 29q42 0 71 -29t29 -71q0 -41 -29 -70l-2 -2q-8 -12 -21 -25
q-103 -103 -248 -103t-247.5 102.5t-102.5 247.5t102.5 247.5t247.5 102.5t248 -102q13 -13 21 -25zM650 1500q-186 0 -318 -132t-132 -318t132 -318t318 -132t318 132t132 318t-132 318t-318 132zM1109.5 1509.5q190.5 -190.5 190.5 -459.5t-190.5 -459.5t-459.5 -190.5
t-459.5 190.5t-190.5 459.5t190.5 459.5t459.5 190.5t459.5 -190.5z" />
    <glyph glyph-name="ordfeminine" unicode="&#xaa;" horiz-adv-x="1650" 
d="M0 200v1100q0 200 200 200h1100q200 0 200 -200v-1100q0 -200 -200 -200h-1100q-200 0 -200 200zM1475 201v1099q0 175 -175 175h-1100q-174 0 -175 -175v-1100q1 -175 175 -175h1101q174 0 174 176z" />
    <glyph glyph-name="guillemotleft" unicode="&#xab;" horiz-adv-x="1550" 
d="M474 700l293 -358q58 -59 58 -142t-58.5 -141.5t-141.5 -58.5t-141 59l-434 541q-37 50 -37 100t37 100l434 542q58 58 141 58t141.5 -58.5t58.5 -141.5t-58 -141zM1099 700l293 -358q58 -59 58 -142t-58.5 -141.5t-141.5 -58.5t-141 59l-434 541q-37 50 -37 100t37 100
l434 542q58 58 141 58t141.5 -58.5t58.5 -141.5t-58 -141z" />
    <glyph glyph-name="logicalnot" unicode="&#xac;" horiz-adv-x="1650" 
d="M0 200v1100q0 200 200 200h1100q200 0 200 -200v-1100q0 -200 -200 -200h-1100q-200 0 -200 200zM1475 201v1099q0 175 -175 175h-1100q-174 0 -175 -175v-1100q1 -175 175 -175h1101q174 0 174 176z" />
    <glyph glyph-name="registered" unicode="&#xae;" horiz-adv-x="1500" 
d="M675 1400q125 0 213 -87q22 -23 39 -48q23 -27 23 -65q0 -41 -29 -70.5t-71 -29.5q-41 0 -70 30l-34 41q-29 29 -71 29q-41 0 -70.5 -29t-29.5 -71v-300q0 -41 -29 -70.5t-71 -29.5q-41 0 -70.5 29.5t-29.5 70.5v300q0 150 75 225t225 75zM650 1500q-186 0 -318 -132
t-132 -318t132 -318t318 -132t318 132t132 318t-132 318t-318 132zM1109.5 1509.5q190.5 -190.5 190.5 -459.5t-190.5 -459.5t-459.5 -190.5t-459.5 190.5t-190.5 459.5t190.5 459.5t459.5 190.5t459.5 -190.5z" />
    <glyph glyph-name="macron" unicode="&#xaf;" horiz-adv-x="1650" 
d="M0 200v1100q0 200 200 200h1100q200 0 200 -200v-1100q0 -200 -200 -200h-1100q-200 0 -200 200zM1475 201v1099q0 175 -175 175h-1100q-174 0 -175 -175v-1100q1 -175 175 -175h1101q174 0 174 176z" />
    <glyph glyph-name="degree" unicode="&#xb0;" 
d="M600 400q-249 0 -424.5 175.5t-175.5 424.5t175.5 424.5t424.5 175.5t424.5 -175.5t175.5 -424.5t-175.5 -424.5t-424.5 -175.5zM741.5 858.5q58.5 58.5 58.5 141.5t-58.5 141.5t-141.5 58.5t-141.5 -58.5t-58.5 -141.5t58.5 -141.5t141.5 -58.5t141.5 58.5z" />
    <glyph glyph-name="plusminus" unicode="&#xb1;" horiz-adv-x="1650" 
d="M0 200v1100q0 200 200 200h1100q200 0 200 -200v-1100q0 -200 -200 -200h-1100q-200 0 -200 200zM1475 201v1099q0 175 -175 175h-1100q-174 0 -175 -175v-1100q1 -175 175 -175h1101q174 0 174 176z" />
    <glyph glyph-name="uni00B2" unicode="&#xb2;" horiz-adv-x="1650" 
d="M0 200v1100q0 200 200 200h1100q200 0 200 -200v-1100q0 -200 -200 -200h-1100q-200 0 -200 200zM1475 201v1099q0 175 -175 175h-1100q-174 0 -175 -175v-1100q1 -175 175 -175h1101q174 0 174 176z" />
    <glyph glyph-name="uni00B3" unicode="&#xb3;" horiz-adv-x="1650" 
d="M0 200v1100q0 200 200 200h1100q200 0 200 -200v-1100q0 -200 -200 -200h-1100q-200 0 -200 200zM1475 201v1099q0 175 -175 175h-1100q-174 0 -175 -175v-1100q1 -175 175 -175h1101q174 0 174 176z" />
    <glyph glyph-name="acute" unicode="&#xb4;" horiz-adv-x="1200" 
d="M342 1759q-92 -59 -142 -59q-83 0 -141.5 58.5t-58.5 141.5t59 142l600 400q91 58 141 58q83 0 141.5 -58.5t58.5 -141.5t-58 -141z" />
    <glyph glyph-name="mu" unicode="&#xb5;" 
d="M400 600q0 -83 58.5 -141.5t141.5 -58.5t141.5 58.5t58.5 141.5v600q0 83 58.5 141.5t141.5 58.5t141.5 -58.5t58.5 -141.5v-1000q0 -83 -58.5 -141.5t-141.5 -58.5q-82 0 -140 57q-118 -57 -260 -57q-107 0 -200 32v-432q0 -83 -58.5 -141.5t-141.5 -58.5t-141.5 58.5
t-58.5 141.5v1600q0 83 58.5 141.5t141.5 58.5t141.5 -58.5t58.5 -141.5v-600z" />
    <glyph glyph-name="paragraph" unicode="&#xb6;" horiz-adv-x="1600" 
d="M900 1200v-1000q0 -83 -58.5 -141.5t-141.5 -58.5t-141.5 58.5t-58.5 141.5v400q-207 0 -353.5 146.5t-146.5 353.5t146.5 353.5t353.5 146.5h700q83 0 141.5 -58.5t58.5 -141.5v-1200q0 -83 -58.5 -141.5t-141.5 -58.5t-141.5 58.5t-58.5 141.5v1000h-100z" />
    <glyph glyph-name="periodcentered" unicode="&#xb7;" horiz-adv-x="600" 
d="M200 600q-83 0 -141.5 58.5t-58.5 141.5t58.5 141.5t141.5 58.5t141.5 -58.5t58.5 -141.5t-58.5 -141.5t-141.5 -58.5z" />
    <glyph glyph-name="periodcentered" unicode="&#x2219;" horiz-adv-x="600" 
d="M200 600q-83 0 -141.5 58.5t-58.5 141.5t58.5 141.5t141.5 58.5t141.5 -58.5t58.5 -141.5t-58.5 -141.5t-141.5 -58.5z" />
    <glyph glyph-name="cedilla" unicode="&#xb8;" horiz-adv-x="1000" 
d="M200 -200q83 0 141.5 58.5t58.5 141.5t58.5 141.5t141.5 58.5t141.5 -58.5t58.5 -141.5q0 -249 -175.5 -424.5t-424.5 -175.5q-83 0 -141.5 58.5t-58.5 141.5t58.5 141.5t141.5 58.5z" />
    <glyph glyph-name="uni00B9" unicode="&#xb9;" horiz-adv-x="1650" 
d="M0 200v1100q0 200 200 200h1100q200 0 200 -200v-1100q0 -200 -200 -200h-1100q-200 0 -200 200zM1475 201v1099q0 175 -175 175h-1100q-174 0 -175 -175v-1100q1 -175 175 -175h1101q174 0 174 176z" />
    <glyph glyph-name="ordmasculine" unicode="&#xba;" horiz-adv-x="1650" 
d="M0 200v1100q0 200 200 200h1100q200 0 200 -200v-1100q0 -200 -200 -200h-1100q-200 0 -200 200zM1475 201v1099q0 175 -175 175h-1100q-174 0 -175 -175v-1100q1 -175 175 -175h1101q174 0 174 176z" />
    <glyph glyph-name="guillemotright" unicode="&#xbb;" horiz-adv-x="1550" 
d="M696 1059q-58 58 -58 141t58.5 141.5t141.5 58.5t141 -58l434 -542q37 -50 37 -100t-37 -100l-434 -541q-58 -59 -141 -59t-141.5 58.5t-58.5 141.5t58 142l293 358zM71 1059q-58 58 -58 141t58.5 141.5t141.5 58.5t141 -58l434 -542q37 -50 37 -100t-37 -100l-434 -541
q-58 -59 -141 -59t-141.5 58.5t-58.5 141.5t58 142l293 358z" />
    <glyph glyph-name="onequarter" unicode="&#xbc;" horiz-adv-x="1650" 
d="M0 200v1100q0 200 200 200h1100q200 0 200 -200v-1100q0 -200 -200 -200h-1100q-200 0 -200 200zM1475 201v1099q0 175 -175 175h-1100q-174 0 -175 -175v-1100q1 -175 175 -175h1101q174 0 174 176z" />
    <glyph glyph-name="onehalf" unicode="&#xbd;" horiz-adv-x="1650" 
d="M0 200v1100q0 200 200 200h1100q200 0 200 -200v-1100q0 -200 -200 -200h-1100q-200 0 -200 200zM1475 201v1099q0 175 -175 175h-1100q-174 0 -175 -175v-1100q1 -175 175 -175h1101q174 0 174 176z" />
    <glyph glyph-name="threequarters" unicode="&#xbe;" horiz-adv-x="1650" 
d="M0 200v1100q0 200 200 200h1100q200 0 200 -200v-1100q0 -200 -200 -200h-1100q-200 0 -200 200zM1475 201v1099q0 175 -175 175h-1100q-174 0 -175 -175v-1100q1 -175 175 -175h1101q174 0 174 176z" />
    <glyph glyph-name="questiondown" unicode="&#xbf;" horiz-adv-x="1200" 
d="M500 1600q83 0 141.5 -58.5t58.5 -141.5t-58.5 -141.5t-141.5 -58.5t-141.5 58.5t-58.5 141.5t58.5 141.5t141.5 58.5zM500 1000q83 0 141.5 -58.5t58.5 -141.5t-58.5 -141.5t-141.5 -58.5q-41 0 -70.5 -29.5t-29.5 -70.5t29.5 -70.5t70.5 -29.5t70.5 29.5t29.5 70.5
q0 83 58.5 141.5t141.5 58.5t141.5 -58.5t58.5 -141.5q0 -207 -146.5 -353.5t-353.5 -146.5t-353.5 146.5t-146.5 353.5t146.5 353.5t353.5 146.5z" />
    <glyph glyph-name="Agrave" unicode="&#xc0;" horiz-adv-x="1800" 
d="M425 200l-50 -100h-1q-13 -22 -32 -42q-59 -58 -142 -58t-141.5 58.5t-58.5 141.5q0 55 26 100h-1l600 1200h1q13 22 33 41q58 59 141 59t142 -59q19 -19 32 -41h1l600 -1200h-1q26 -45 26 -100q0 -83 -58.5 -141.5t-141.5 -58.5t-141 58q-20 20 -33 42h-1l-50 100h-750z
M975 600l-175 350l-175 -350h350zM359 2159q-59 58 -59 141t58.5 141.5t141.5 58.5q50 0 142 -58l600 -400q58 -59 58 -142t-58.5 -141.5t-141.5 -58.5q-50 0 -141 59z" />
    <glyph glyph-name="Aacute" unicode="&#xc1;" horiz-adv-x="1800" 
d="M425 200l-50 -100h-1q-13 -22 -32 -42q-59 -58 -142 -58t-141.5 58.5t-58.5 141.5q0 55 26 100h-1l600 1200h1q13 22 33 41q58 59 141 59t142 -59q19 -19 32 -41h1l600 -1200h-1q26 -45 26 -100q0 -83 -58.5 -141.5t-141.5 -58.5t-141 58q-20 20 -33 42h-1l-50 100h-750z
M975 600l-175 350l-175 -350h350zM642 1759q-92 -59 -142 -59q-83 0 -141.5 58.5t-58.5 141.5t59 142l600 400q91 58 141 58q83 0 141.5 -58.5t58.5 -141.5t-58 -141z" />
    <glyph glyph-name="Acircumflex" unicode="&#xc2;" horiz-adv-x="1800" 
d="M425 200l-50 -100h-1q-13 -22 -32 -42q-59 -58 -142 -58t-141.5 58.5t-58.5 141.5q0 55 26 100h-1l600 1200h1q13 22 33 41q58 59 141 59t142 -59q19 -19 32 -41h1l600 -1200h-1q26 -45 26 -100q0 -83 -58.5 -141.5t-141.5 -58.5t-141 58q-20 20 -33 42h-1l-50 100h-750z
M975 600l-175 350l-175 -350h350zM801 2033l-309 -274q-59 -59 -142 -59t-141.5 58.5t-58.5 141.5t59 142l450 400q58 58 141 58t142 -58l450 -400q58 -59 58 -142t-58.5 -141.5t-141.5 -58.5t-141 59z" />
    <glyph glyph-name="Atilde" unicode="&#xc3;" horiz-adv-x="1800" 
d="M425 200l-50 -100h-1q-13 -22 -32 -42q-59 -58 -142 -58t-141.5 58.5t-58.5 141.5q0 55 26 100h-1l600 1200h1q13 22 33 41q58 59 141 59t142 -59q19 -19 32 -41h1l600 -1200h-1q26 -45 26 -100q0 -83 -58.5 -141.5t-141.5 -58.5t-141 58q-20 20 -33 42h-1l-50 100h-750z
M975 600l-175 350l-175 -350h350zM1150 2200q0 83 58.5 141.5t141.5 58.5t141.5 -58.5t58.5 -141.5q0 -207 -146.5 -353.5t-353.5 -146.5q-225 0 -325 150q-75 91 -104.5 120.5t-70.5 29.5t-70.5 -29.5t-29.5 -70.5q0 -83 -58.5 -141.5t-141.5 -58.5t-141.5 58.5
t-58.5 141.5q0 207 146.5 353.5t353.5 146.5q225 0 325 -150q75 -91 104.5 -120.5t70.5 -29.5t70.5 29.5t29.5 70.5z" />
    <glyph glyph-name="Adieresis" unicode="&#xc4;" horiz-adv-x="1800" 
d="M425 200l-50 -100h-1q-13 -22 -32 -42q-59 -58 -142 -58t-141.5 58.5t-58.5 141.5q0 55 26 100h-1l600 1200h1q13 22 33 41q58 59 141 59t142 -59q19 -19 32 -41h1l600 -1200h-1q26 -45 26 -100q0 -83 -58.5 -141.5t-141.5 -58.5t-141 58q-20 20 -33 42h-1l-50 100h-750z
M975 600l-175 350l-175 -350h350zM500 1800q-83 0 -141.5 58.5t-58.5 141.5t58.5 141.5t141.5 58.5t141.5 -58.5t58.5 -141.5t-58.5 -141.5t-141.5 -58.5zM1100 1800q-83 0 -141.5 58.5t-58.5 141.5t58.5 141.5t141.5 58.5t141.5 -58.5t58.5 -141.5t-58.5 -141.5
t-141.5 -58.5z" />
    <glyph glyph-name="Aring" unicode="&#xc5;" horiz-adv-x="1800" 
d="M425 200l-50 -100h-1q-13 -22 -32 -42q-59 -58 -142 -58t-141.5 58.5t-58.5 141.5q0 55 26 100h-1l600 1200h1q13 22 33 41q58 59 141 59t142 -59q19 -19 32 -41h1l600 -1200h-1q26 -45 26 -100q0 -83 -58.5 -141.5t-141.5 -58.5t-141 58q-20 20 -33 42h-1l-50 100h-750z
M975 600l-175 350l-175 -350h350zM800 1800q-83 0 -141.5 58.5t-58.5 141.5t58.5 141.5t141.5 58.5t141.5 -58.5t58.5 -141.5t-58.5 -141.5t-141.5 -58.5z" />
    <glyph glyph-name="AE" unicode="&#xc6;" horiz-adv-x="2200" 
d="M658 600l-58 175l-58 -175h116zM802 172q-1 2 -1 3h-1l-8 25h-384l-8 -25h-1q-18 -67 -57 -116q-59 -59 -142 -59t-141.5 58.5t-58.5 141.5q10 55 25 100l375 1125q19 67 59 116q58 59 141 59t142 -59q39 -49 58 -116l1 -3q7 69 58 120q58 58 141 58h800
q83 0 141.5 -58.5t58.5 -141.5t-58.5 -141.5t-141.5 -58.5h-600v-200h400q83 0 141.5 -58.5t58.5 -141.5t-58.5 -141.5t-141.5 -58.5h-400v-200h600q83 0 141.5 -58.5t58.5 -141.5t-58.5 -141.5t-141.5 -58.5h-800q-83 0 -141 59q-49 48 -57 113z" />
    <glyph glyph-name="Ccedilla" unicode="&#xc7;" horiz-adv-x="1650" 
d="M600 24q-205 50 -365 211q-235 234 -235 565t234.5 565.5t565.5 234.5t566 -234q5 -5 10 -11q8 -6 16 -13q58 -59 58 -142t-58.5 -141.5t-141.5 -58.5t-141 59q-7 6 -13 14q-7 4 -13 10q-117 117 -283 117t-283 -117t-117 -283t117 -283t283 -117t283 117q6 6 12 10
q6 7 14 15q58 58 141 58t141.5 -58.5t58.5 -141.5t-58 -141q-10 -10 -20 -18l-6 -6q-161 -161 -366 -211v-24q0 -249 -175.5 -424.5t-424.5 -175.5q-83 0 -141.5 58.5t-58.5 141.5t58.5 141.5t141.5 58.5t141.5 58.5t58.5 141.5v24z" />
    <glyph glyph-name="Egrave" unicode="&#xc8;" 
d="M800 1000q83 0 141.5 -58.5t58.5 -141.5t-58.5 -141.5t-141.5 -58.5h-400v-200h600q83 0 141.5 -58.5t58.5 -141.5t-58.5 -141.5t-141.5 -58.5h-800q-83 0 -141.5 58.5t-58.5 141.5v1200q0 83 58.5 141.5t141.5 58.5h800q83 0 141.5 -58.5t58.5 -141.5t-58.5 -141.5
t-141.5 -58.5h-600v-200h400zM159 2159q-59 58 -59 141t58.5 141.5t141.5 58.5q50 0 142 -58l600 -400q58 -59 58 -142t-58.5 -141.5t-141.5 -58.5q-50 0 -141 59z" />
    <glyph glyph-name="Eacute" unicode="&#xc9;" 
d="M800 1000q83 0 141.5 -58.5t58.5 -141.5t-58.5 -141.5t-141.5 -58.5h-400v-200h600q83 0 141.5 -58.5t58.5 -141.5t-58.5 -141.5t-141.5 -58.5h-800q-83 0 -141.5 58.5t-58.5 141.5v1200q0 83 58.5 141.5t141.5 58.5h800q83 0 141.5 -58.5t58.5 -141.5t-58.5 -141.5
t-141.5 -58.5h-600v-200h400zM442 1759q-92 -59 -142 -59q-83 0 -141.5 58.5t-58.5 141.5t59 142l600 400q91 58 141 58q83 0 141.5 -58.5t58.5 -141.5t-58 -141z" />
    <glyph glyph-name="Ecircumflex" unicode="&#xca;" 
d="M800 1000q83 0 141.5 -58.5t58.5 -141.5t-58.5 -141.5t-141.5 -58.5h-400v-200h600q83 0 141.5 -58.5t58.5 -141.5t-58.5 -141.5t-141.5 -58.5h-800q-83 0 -141.5 58.5t-58.5 141.5v1200q0 83 58.5 141.5t141.5 58.5h800q83 0 141.5 -58.5t58.5 -141.5t-58.5 -141.5
t-141.5 -58.5h-600v-200h400zM601 2033l-309 -274q-59 -59 -142 -59t-141.5 58.5t-58.5 141.5t59 142l450 400q58 58 141 58t142 -58l450 -400q58 -59 58 -142t-58.5 -141.5t-141.5 -58.5t-141 59z" />
    <glyph glyph-name="Edieresis" unicode="&#xcb;" 
d="M800 1000q83 0 141.5 -58.5t58.5 -141.5t-58.5 -141.5t-141.5 -58.5h-400v-200h600q83 0 141.5 -58.5t58.5 -141.5t-58.5 -141.5t-141.5 -58.5h-800q-83 0 -141.5 58.5t-58.5 141.5v1200q0 83 58.5 141.5t141.5 58.5h800q83 0 141.5 -58.5t58.5 -141.5t-58.5 -141.5
t-141.5 -58.5h-600v-200h400zM300 1800q-83 0 -141.5 58.5t-58.5 141.5t58.5 141.5t141.5 58.5t141.5 -58.5t58.5 -141.5t-58.5 -141.5t-141.5 -58.5zM900 1800q-83 0 -141.5 58.5t-58.5 141.5t58.5 141.5t141.5 58.5t141.5 -58.5t58.5 -141.5t-58.5 -141.5t-141.5 -58.5z
" />
    <glyph glyph-name="Igrave" unicode="&#xcc;" horiz-adv-x="600" 
d="M400 200q0 -83 -58.5 -141.5t-141.5 -58.5t-141.5 58.5t-58.5 141.5v1200q0 83 58.5 141.5t141.5 58.5t141.5 -58.5t58.5 -141.5v-1200zM-241 2159q-59 58 -59 141t58.5 141.5t141.5 58.5q50 0 142 -58l600 -400q58 -59 58 -142t-58.5 -141.5t-141.5 -58.5q-50 0 -141 59
z" />
    <glyph glyph-name="Iacute" unicode="&#xcd;" horiz-adv-x="600" 
d="M400 200q0 -83 -58.5 -141.5t-141.5 -58.5t-141.5 58.5t-58.5 141.5v1200q0 83 58.5 141.5t141.5 58.5t141.5 -58.5t58.5 -141.5v-1200zM42 1759q-92 -59 -142 -59q-83 0 -141.5 58.5t-58.5 141.5t59 142l600 400q91 58 141 58q83 0 141.5 -58.5t58.5 -141.5t-58 -141z
" />
    <glyph glyph-name="Icircumflex" unicode="&#xce;" horiz-adv-x="600" 
d="M400 200q0 -83 -58.5 -141.5t-141.5 -58.5t-141.5 58.5t-58.5 141.5v1200q0 83 58.5 141.5t141.5 58.5t141.5 -58.5t58.5 -141.5v-1200zM201 2033l-309 -274q-59 -59 -142 -59t-141.5 58.5t-58.5 141.5t59 142l450 400q58 58 141 58t142 -58l450 -400q58 -59 58 -142
t-58.5 -141.5t-141.5 -58.5t-141 59z" />
    <glyph glyph-name="Idieresis" unicode="&#xcf;" horiz-adv-x="600" 
d="M400 200q0 -83 -58.5 -141.5t-141.5 -58.5t-141.5 58.5t-58.5 141.5v1200q0 83 58.5 141.5t141.5 58.5t141.5 -58.5t58.5 -141.5v-1200zM-100 1800q-83 0 -141.5 58.5t-58.5 141.5t58.5 141.5t141.5 58.5t141.5 -58.5t58.5 -141.5t-58.5 -141.5t-141.5 -58.5zM500 1800
q-83 0 -141.5 58.5t-58.5 141.5t58.5 141.5t141.5 58.5t141.5 -58.5t58.5 -141.5t-58.5 -141.5t-141.5 -58.5z" />
    <glyph glyph-name="Eth" unicode="&#xd0;" 
d="M500 600h-100v-200q166 0 283 117t117 283t-117 283t-283 117v-200h100q83 0 141.5 -58.5t58.5 -141.5t-58.5 -141.5t-141.5 -58.5zM400 0h-200q-83 0 -141.5 58.5t-58.5 141.5v1200q0 83 58.5 141.5t141.5 58.5h200q331 0 565.5 -234.5t234.5 -565.5t-234.5 -565.5
t-565.5 -234.5z" />
    <glyph glyph-name="Ntilde" unicode="&#xd1;" 
d="M800 830v570q0 83 58.5 141.5t141.5 58.5t141.5 -58.5t58.5 -141.5v-1200q0 -83 -58.5 -141.5t-141.5 -58.5t-141 59q-20 19 -33 41h-1l-425 670v-570q0 -83 -58.5 -141.5t-141.5 -58.5t-141.5 58.5t-58.5 141.5v1200q0 83 58.5 141.5t141.5 58.5t142 -58q19 -20 32 -42
h1zM950 2200q0 83 58.5 141.5t141.5 58.5t141.5 -58.5t58.5 -141.5q0 -207 -146.5 -353.5t-353.5 -146.5q-225 0 -325 150q-75 91 -104.5 120.5t-70.5 29.5t-70.5 -29.5t-29.5 -70.5q0 -83 -58.5 -141.5t-141.5 -58.5t-141.5 58.5t-58.5 141.5q0 207 146.5 353.5
t353.5 146.5q225 0 325 -150q75 -91 104.5 -120.5t70.5 -29.5t70.5 29.5t29.5 70.5z" />
    <glyph glyph-name="Ograve" unicode="&#xd2;" horiz-adv-x="1800" 
d="M800 0q-331 0 -565.5 234.5t-234.5 565.5t234.5 565.5t565.5 234.5t565.5 -234.5t234.5 -565.5t-234.5 -565.5t-565.5 -234.5zM1083 517q117 117 117 283t-117 283t-283 117t-283 -117t-117 -283t117 -283t283 -117t283 117zM359 2159q-59 58 -59 141t58.5 141.5
t141.5 58.5q50 0 142 -58l600 -400q58 -59 58 -142t-58.5 -141.5t-141.5 -58.5q-50 0 -141 59z" />
    <glyph glyph-name="Oacute" unicode="&#xd3;" horiz-adv-x="1800" 
d="M800 0q-331 0 -565.5 234.5t-234.5 565.5t234.5 565.5t565.5 234.5t565.5 -234.5t234.5 -565.5t-234.5 -565.5t-565.5 -234.5zM1083 517q117 117 117 283t-117 283t-283 117t-283 -117t-117 -283t117 -283t283 -117t283 117zM642 1759q-92 -59 -142 -59
q-83 0 -141.5 58.5t-58.5 141.5t59 142l600 400q91 58 141 58q83 0 141.5 -58.5t58.5 -141.5t-58 -141z" />
    <glyph glyph-name="Ocircumflex" unicode="&#xd4;" horiz-adv-x="1800" 
d="M800 0q-331 0 -565.5 234.5t-234.5 565.5t234.5 565.5t565.5 234.5t565.5 -234.5t234.5 -565.5t-234.5 -565.5t-565.5 -234.5zM1083 517q117 117 117 283t-117 283t-283 117t-283 -117t-117 -283t117 -283t283 -117t283 117zM801 2033l-309 -274q-59 -59 -142 -59
t-141.5 58.5t-58.5 141.5t59 142l450 400q58 58 141 58t142 -58l450 -400q58 -59 58 -142t-58.5 -141.5t-141.5 -58.5t-141 59z" />
    <glyph glyph-name="Otilde" unicode="&#xd5;" horiz-adv-x="1800" 
d="M800 0q-331 0 -565.5 234.5t-234.5 565.5t234.5 565.5t565.5 234.5t565.5 -234.5t234.5 -565.5t-234.5 -565.5t-565.5 -234.5zM1083 517q117 117 117 283t-117 283t-283 117t-283 -117t-117 -283t117 -283t283 -117t283 117zM1150 2200q0 83 58.5 141.5t141.5 58.5
t141.5 -58.5t58.5 -141.5q0 -207 -146.5 -353.5t-353.5 -146.5q-225 0 -325 150q-75 91 -104.5 120.5t-70.5 29.5t-70.5 -29.5t-29.5 -70.5q0 -83 -58.5 -141.5t-141.5 -58.5t-141.5 58.5t-58.5 141.5q0 207 146.5 353.5t353.5 146.5q225 0 325 -150q75 -91 104.5 -120.5
t70.5 -29.5t70.5 29.5t29.5 70.5z" />
    <glyph glyph-name="Odieresis" unicode="&#xd6;" horiz-adv-x="1800" 
d="M800 0q-331 0 -565.5 234.5t-234.5 565.5t234.5 565.5t565.5 234.5t565.5 -234.5t234.5 -565.5t-234.5 -565.5t-565.5 -234.5zM1083 517q117 117 117 283t-117 283t-283 117t-283 -117t-117 -283t117 -283t283 -117t283 117zM500 1800q-83 0 -141.5 58.5t-58.5 141.5
t58.5 141.5t141.5 58.5t141.5 -58.5t58.5 -141.5t-58.5 -141.5t-141.5 -58.5zM1100 1800q-83 0 -141.5 58.5t-58.5 141.5t58.5 141.5t141.5 58.5t141.5 -58.5t58.5 -141.5t-58.5 -141.5t-141.5 -58.5z" />
    <glyph glyph-name="multiply" unicode="&#xd7;" 
d="M849 800l293 -358q58 -59 58 -142t-58.5 -141.5t-141.5 -58.5t-141 59l-259 326l-258 -326q-59 -59 -142 -59t-141.5 58.5t-58.5 141.5t59 142l292 358l-292 359q-59 58 -59 141t58.5 141.5t141.5 58.5t142 -58l258 -327l259 327q58 58 141 58t141.5 -58.5t58.5 -141.5
t-58 -141z" />
    <glyph glyph-name="Oslash" unicode="&#xd8;" horiz-adv-x="1800" 
d="M780 400h20q166 0 283 117t117 283q0 91 -35 167zM440 623l385 576q-13 1 -25 1q-166 0 -283 -117t-117 -283q0 -97 40 -177zM1395 1334q205 -225 205 -534q0 -331 -234.5 -565.5t-565.5 -234.5q-146 0 -273 45q-54 -45 -127 -45q-83 0 -141.5 58.5t-58.5 141.5
q0 32 9 61q-209 227 -209 539q0 331 234.5 565.5t565.5 234.5q145 0 272 -45q55 45 128 45q83 0 141.5 -58.5t58.5 -141.5q0 -37 -5 -66z" />
    <glyph glyph-name="Ugrave" unicode="&#xd9;" 
d="M0 1400q0 83 58.5 141.5t141.5 58.5t141.5 -58.5t58.5 -141.5v-800q0 -83 58.5 -141.5t141.5 -58.5t141.5 58.5t58.5 141.5v800q0 83 58.5 141.5t141.5 58.5t141.5 -58.5t58.5 -141.5v-800q0 -249 -175.5 -424.5t-424.5 -175.5t-424.5 175.5t-175.5 424.5v800zM159 2159
q-59 58 -59 141t58.5 141.5t141.5 58.5q50 0 142 -58l600 -400q58 -59 58 -142t-58.5 -141.5t-141.5 -58.5q-50 0 -141 59z" />
    <glyph glyph-name="Uacute" unicode="&#xda;" 
d="M0 1400q0 83 58.5 141.5t141.5 58.5t141.5 -58.5t58.5 -141.5v-800q0 -83 58.5 -141.5t141.5 -58.5t141.5 58.5t58.5 141.5v800q0 83 58.5 141.5t141.5 58.5t141.5 -58.5t58.5 -141.5v-800q0 -249 -175.5 -424.5t-424.5 -175.5t-424.5 175.5t-175.5 424.5v800zM442 1759
q-92 -59 -142 -59q-83 0 -141.5 58.5t-58.5 141.5t59 142l600 400q91 58 141 58q83 0 141.5 -58.5t58.5 -141.5t-58 -141z" />
    <glyph glyph-name="Ucircumflex" unicode="&#xdb;" 
d="M0 1400q0 83 58.5 141.5t141.5 58.5t141.5 -58.5t58.5 -141.5v-800q0 -83 58.5 -141.5t141.5 -58.5t141.5 58.5t58.5 141.5v800q0 83 58.5 141.5t141.5 58.5t141.5 -58.5t58.5 -141.5v-800q0 -249 -175.5 -424.5t-424.5 -175.5t-424.5 175.5t-175.5 424.5v800zM601 2033
l-309 -274q-59 -59 -142 -59t-141.5 58.5t-58.5 141.5t59 142l450 400q58 58 141 58t142 -58l450 -400q58 -59 58 -142t-58.5 -141.5t-141.5 -58.5t-141 59z" />
    <glyph glyph-name="Udieresis" unicode="&#xdc;" 
d="M0 1400q0 83 58.5 141.5t141.5 58.5t141.5 -58.5t58.5 -141.5v-800q0 -83 58.5 -141.5t141.5 -58.5t141.5 58.5t58.5 141.5v800q0 83 58.5 141.5t141.5 58.5t141.5 -58.5t58.5 -141.5v-800q0 -249 -175.5 -424.5t-424.5 -175.5t-424.5 175.5t-175.5 424.5v800zM300 1800
q-83 0 -141.5 58.5t-58.5 141.5t58.5 141.5t141.5 58.5t141.5 -58.5t58.5 -141.5t-58.5 -141.5t-141.5 -58.5zM900 1800q-83 0 -141.5 58.5t-58.5 141.5t58.5 141.5t141.5 58.5t141.5 -58.5t58.5 -141.5t-58.5 -141.5t-141.5 -58.5z" />
    <glyph glyph-name="Yacute" unicode="&#xdd;" 
d="M400 724l-47 69l-328 482q-25 42 -25 125t58.5 141.5t141.5 58.5t142 -58q19 -20 32 -43l1 1l225 -337l225 337l1 -1q13 23 32 43q59 58 142 58t141.5 -58.5t58.5 -141.5t-25 -125l-328 -482l-47 -69v-524q0 -83 -58.5 -141.5t-141.5 -58.5t-141.5 58.5t-58.5 141.5v524z
M442 1759q-92 -59 -142 -59q-83 0 -141.5 58.5t-58.5 141.5t59 142l600 400q91 58 141 58q83 0 141.5 -58.5t58.5 -141.5t-58 -141z" />
    <glyph glyph-name="Thorn" unicode="&#xde;" 
d="M700 900h-300v-200h300q41 0 70.5 29.5t29.5 70.5t-29.5 70.5t-70.5 29.5zM400 1300h300q207 0 353.5 -146.5t146.5 -353.5t-146.5 -353.5t-353.5 -146.5h-300v-100q0 -83 -58.5 -141.5t-141.5 -58.5t-141.5 58.5t-58.5 141.5v1200q0 83 58.5 141.5t141.5 58.5
t141.5 -58.5t58.5 -141.5v-100z" />
    <glyph glyph-name="germandbls" unicode="&#xdf;" 
d="M700 0q-83 0 -141.5 58.5t-58.5 141.5t58.5 141.5t141.5 58.5q41 0 70.5 29.5t29.5 70.5t-29.5 70.5t-70.5 29.5q-83 0 -141.5 58.5t-58.5 141.5t58.5 141.5t141.5 58.5q41 0 70.5 29.5t29.5 70.5t-29.5 70.5t-70.5 29.5h-200q-41 0 -70.5 -29.5t-29.5 -70.5v-900
q0 -83 -58.5 -141.5t-141.5 -58.5t-141.5 58.5t-58.5 141.5v900q0 207 146.5 353.5t353.5 146.5h200q207 0 353.5 -146.5t146.5 -353.5q0 -171 -99 -300q99 -129 99 -300q0 -207 -146.5 -353.5t-353.5 -146.5z" />
    <glyph glyph-name="agrave" unicode="&#xe0;" horiz-adv-x="1600" 
d="M912 488q88 88 88 212t-88 212t-212 88t-212 -88t-88 -212t88 -212t212 -88t212 88zM1037 84q-151 -84 -337 -84q-290 0 -495 205t-205 495t205 495t495 205q186 0 337 -84q9 13 22 26q58 58 141 58t141.5 -58.5t58.5 -141.5v-1000q0 -83 -58.5 -141.5t-141.5 -58.5
t-141 59q-13 12 -22 25zM259 1959q-59 58 -59 141t58.5 141.5t141.5 58.5q50 0 142 -58l600 -400q58 -59 58 -142t-58.5 -141.5t-141.5 -58.5q-50 0 -141 59z" />
    <glyph glyph-name="aacute" unicode="&#xe1;" horiz-adv-x="1600" 
d="M912 488q88 88 88 212t-88 212t-212 88t-212 -88t-88 -212t88 -212t212 -88t212 88zM1037 84q-151 -84 -337 -84q-290 0 -495 205t-205 495t205 495t495 205q186 0 337 -84q9 13 22 26q58 58 141 58t141.5 -58.5t58.5 -141.5v-1000q0 -83 -58.5 -141.5t-141.5 -58.5
t-141 59q-13 12 -22 25zM542 1559q-92 -59 -142 -59q-83 0 -141.5 58.5t-58.5 141.5t59 142l600 400q91 58 141 58q83 0 141.5 -58.5t58.5 -141.5t-58 -141z" />
    <glyph glyph-name="acircumflex" unicode="&#xe2;" horiz-adv-x="1600" 
d="M912 488q88 88 88 212t-88 212t-212 88t-212 -88t-88 -212t88 -212t212 -88t212 88zM1037 84q-151 -84 -337 -84q-290 0 -495 205t-205 495t205 495t495 205q186 0 337 -84q9 13 22 26q58 58 141 58t141.5 -58.5t58.5 -141.5v-1000q0 -83 -58.5 -141.5t-141.5 -58.5
t-141 59q-13 12 -22 25zM701 1833l-309 -274q-59 -59 -142 -59t-141.5 58.5t-58.5 141.5t59 142l450 400q58 58 141 58t142 -58l450 -400q58 -59 58 -142t-58.5 -141.5t-141.5 -58.5t-141 59z" />
    <glyph glyph-name="atilde" unicode="&#xe3;" horiz-adv-x="1600" 
d="M912 488q88 88 88 212t-88 212t-212 88t-212 -88t-88 -212t88 -212t212 -88t212 88zM1037 84q-151 -84 -337 -84q-290 0 -495 205t-205 495t205 495t495 205q186 0 337 -84q9 13 22 26q58 58 141 58t141.5 -58.5t58.5 -141.5v-1000q0 -83 -58.5 -141.5t-141.5 -58.5
t-141 59q-13 12 -22 25zM1050 2000q0 83 58.5 141.5t141.5 58.5t141.5 -58.5t58.5 -141.5q0 -207 -146.5 -353.5t-353.5 -146.5q-225 0 -325 150q-75 91 -104.5 120.5t-70.5 29.5t-70.5 -29.5t-29.5 -70.5q0 -83 -58.5 -141.5t-141.5 -58.5t-141.5 58.5t-58.5 141.5
q0 207 146.5 353.5t353.5 146.5q225 0 325 -150q75 -91 104.5 -120.5t70.5 -29.5t70.5 29.5t29.5 70.5z" />
    <glyph glyph-name="adieresis" unicode="&#xe4;" horiz-adv-x="1600" 
d="M912 488q88 88 88 212t-88 212t-212 88t-212 -88t-88 -212t88 -212t212 -88t212 88zM1037 84q-151 -84 -337 -84q-290 0 -495 205t-205 495t205 495t495 205q186 0 337 -84q9 13 22 26q58 58 141 58t141.5 -58.5t58.5 -141.5v-1000q0 -83 -58.5 -141.5t-141.5 -58.5
t-141 59q-13 12 -22 25zM400 1600q-83 0 -141.5 58.5t-58.5 141.5t58.5 141.5t141.5 58.5t141.5 -58.5t58.5 -141.5t-58.5 -141.5t-141.5 -58.5zM1000 1600q-83 0 -141.5 58.5t-58.5 141.5t58.5 141.5t141.5 58.5t141.5 -58.5t58.5 -141.5t-58.5 -141.5t-141.5 -58.5z" />
    <glyph glyph-name="aring" unicode="&#xe5;" horiz-adv-x="1600" 
d="M912 488q88 88 88 212t-88 212t-212 88t-212 -88t-88 -212t88 -212t212 -88t212 88zM1037 84q-151 -84 -337 -84q-290 0 -495 205t-205 495t205 495t495 205q186 0 337 -84q9 13 22 26q58 58 141 58t141.5 -58.5t58.5 -141.5v-1000q0 -83 -58.5 -141.5t-141.5 -58.5
t-141 59q-13 12 -22 25zM700 1600q-83 0 -141.5 58.5t-58.5 141.5t58.5 141.5t141.5 58.5t141.5 -58.5t58.5 -141.5t-58.5 -141.5t-141.5 -58.5z" />
    <glyph glyph-name="ae" unicode="&#xe6;" horiz-adv-x="2600" 
d="M1000 700q0 124 -88 212t-212 88t-212 -88t-88 -212t88 -212t212 -88t212 88t88 212zM1923 900q-5 6 -11 12q-88 88 -212 88t-212 -88q-6 -6 -11 -12h446zM1363 84q-9 -13 -21 -25q-59 -59 -142 -59t-141 59q-13 12 -22 25q-151 -84 -337 -84q-290 0 -495 205t-205 495
t205 495t495 205q186 0 337 -84q9 13 22 26q58 58 141 58t142 -58q12 -13 21 -26q151 84 337 84q290 0 495 -205t205 -495q0 -83 -58.5 -141.5t-141.5 -58.5h-723q5 -6 11 -12q88 -88 212 -88h300q83 0 141.5 -58.5t58.5 -141.5t-58.5 -141.5t-141.5 -58.5h-300
q-186 0 -337 84z" />
    <glyph glyph-name="ccedilla" unicode="&#xe7;" horiz-adv-x="1500" 
d="M502 27q-166 47 -297 178q-205 205 -205 495t205 495t495 205t495 -205q26 -26 42 -49q2 -2 5 -4q58 -59 58 -142t-58.5 -141.5t-141.5 -58.5t-141 59q-21 20 -34 43q-7 4 -13 10q-88 88 -212 88t-212 -88t-88 -212t88 -212t212 -88t212 88q7 7 14 11q13 23 33 43
q58 58 141 58t141.5 -58.5t58.5 -141.5t-58 -141l-4 -4q-17 -24 -43 -50q-131 -131 -297 -178q2 -13 2 -27q0 -249 -175.5 -424.5t-424.5 -175.5q-83 0 -141.5 58.5t-58.5 141.5t58.5 141.5t141.5 58.5t141.5 58.5t58.5 141.5q0 14 2 27z" />
    <glyph glyph-name="egrave" unicode="&#xe8;" horiz-adv-x="1600" 
d="M477 500q5 -6 11 -12q88 -88 212 -88h300q83 0 141.5 -58.5t58.5 -141.5t-58.5 -141.5t-141.5 -58.5h-300q-290 0 -495 205t-205 495t205 495t495 205t495 -205t205 -495q0 -83 -58.5 -141.5t-141.5 -58.5h-723zM923 900q-5 6 -11 12q-88 88 -212 88t-212 -88
q-6 -6 -11 -12h446zM259 1959q-59 58 -59 141t58.5 141.5t141.5 58.5q50 0 142 -58l600 -400q58 -59 58 -142t-58.5 -141.5t-141.5 -58.5q-50 0 -141 59z" />
    <glyph glyph-name="eacute" unicode="&#xe9;" horiz-adv-x="1600" 
d="M477 500q5 -6 11 -12q88 -88 212 -88h300q83 0 141.5 -58.5t58.5 -141.5t-58.5 -141.5t-141.5 -58.5h-300q-290 0 -495 205t-205 495t205 495t495 205t495 -205t205 -495q0 -83 -58.5 -141.5t-141.5 -58.5h-723zM923 900q-5 6 -11 12q-88 88 -212 88t-212 -88
q-6 -6 -11 -12h446zM542 1559q-92 -59 -142 -59q-83 0 -141.5 58.5t-58.5 141.5t59 142l600 400q91 58 141 58q83 0 141.5 -58.5t58.5 -141.5t-58 -141z" />
    <glyph glyph-name="ecircumflex" unicode="&#xea;" horiz-adv-x="1600" 
d="M477 500q5 -6 11 -12q88 -88 212 -88h300q83 0 141.5 -58.5t58.5 -141.5t-58.5 -141.5t-141.5 -58.5h-300q-290 0 -495 205t-205 495t205 495t495 205t495 -205t205 -495q0 -83 -58.5 -141.5t-141.5 -58.5h-723zM923 900q-5 6 -11 12q-88 88 -212 88t-212 -88
q-6 -6 -11 -12h446zM701 1833l-309 -274q-59 -59 -142 -59t-141.5 58.5t-58.5 141.5t59 142l450 400q58 58 141 58t142 -58l450 -400q58 -59 58 -142t-58.5 -141.5t-141.5 -58.5t-141 59z" />
    <glyph glyph-name="edieresis" unicode="&#xeb;" horiz-adv-x="1600" 
d="M477 500q5 -6 11 -12q88 -88 212 -88h300q83 0 141.5 -58.5t58.5 -141.5t-58.5 -141.5t-141.5 -58.5h-300q-290 0 -495 205t-205 495t205 495t495 205t495 -205t205 -495q0 -83 -58.5 -141.5t-141.5 -58.5h-723zM923 900q-5 6 -11 12q-88 88 -212 88t-212 -88
q-6 -6 -11 -12h446zM400 1600q-83 0 -141.5 58.5t-58.5 141.5t58.5 141.5t141.5 58.5t141.5 -58.5t58.5 -141.5t-58.5 -141.5t-141.5 -58.5zM1000 1600q-83 0 -141.5 58.5t-58.5 141.5t58.5 141.5t141.5 58.5t141.5 -58.5t58.5 -141.5t-58.5 -141.5t-141.5 -58.5z" />
    <glyph glyph-name="igrave" unicode="&#xec;" horiz-adv-x="600" 
d="M400 200q0 -83 -58.5 -141.5t-141.5 -58.5t-141.5 58.5t-58.5 141.5v1000q0 83 58.5 141.5t141.5 58.5t141.5 -58.5t58.5 -141.5v-1000zM-241 1959q-59 58 -59 141t58.5 141.5t141.5 58.5q50 0 142 -58l600 -400q58 -59 58 -142t-58.5 -141.5t-141.5 -58.5q-50 0 -141 59
z" />
    <glyph glyph-name="iacute" unicode="&#xed;" horiz-adv-x="600" 
d="M400 200q0 -83 -58.5 -141.5t-141.5 -58.5t-141.5 58.5t-58.5 141.5v1000q0 83 58.5 141.5t141.5 58.5t141.5 -58.5t58.5 -141.5v-1000zM42 1559q-92 -59 -142 -59q-83 0 -141.5 58.5t-58.5 141.5t59 142l600 400q91 58 141 58q83 0 141.5 -58.5t58.5 -141.5t-58 -141z
" />
    <glyph glyph-name="icircumflex" unicode="&#xee;" horiz-adv-x="600" 
d="M400 200q0 -83 -58.5 -141.5t-141.5 -58.5t-141.5 58.5t-58.5 141.5v1000q0 83 58.5 141.5t141.5 58.5t141.5 -58.5t58.5 -141.5v-1000zM201 1833l-309 -274q-59 -59 -142 -59t-141.5 58.5t-58.5 141.5t59 142l450 400q58 58 141 58t142 -58l450 -400q58 -59 58 -142
t-58.5 -141.5t-141.5 -58.5t-141 59z" />
    <glyph glyph-name="idieresis" unicode="&#xef;" horiz-adv-x="600" 
d="M400 200q0 -83 -58.5 -141.5t-141.5 -58.5t-141.5 58.5t-58.5 141.5v1000q0 83 58.5 141.5t141.5 58.5t141.5 -58.5t58.5 -141.5v-1000zM-100 1600q-83 0 -141.5 58.5t-58.5 141.5t58.5 141.5t141.5 58.5t141.5 -58.5t58.5 -141.5t-58.5 -141.5t-141.5 -58.5zM500 1600
q-83 0 -141.5 58.5t-58.5 141.5t58.5 141.5t141.5 58.5t141.5 -58.5t58.5 -141.5t-58.5 -141.5t-141.5 -58.5z" />
    <glyph glyph-name="eth" unicode="&#xf0;" horiz-adv-x="1800" 
d="M700 400q124 0 212 88t88 212v299l-300 1q-124 0 -212 -88t-88 -212t88 -212t212 -88zM1400 1000v-800q0 -83 -58.5 -141.5t-141.5 -58.5t-141 59q-13 12 -22 25q-151 -84 -337 -84q-290 0 -495 205t-205 495t205 495t495 205h300q0 83 58.5 141.5t141.5 58.5
t141.5 -58.5t58.5 -141.5q83 0 141.5 -58.5t58.5 -141.5t-58.5 -141.5t-141.5 -58.5z" />
    <glyph glyph-name="ntilde" unicode="&#xf1;" 
d="M340 1343q118 57 260 57q249 0 424.5 -175.5t175.5 -424.5v-600q0 -83 -58.5 -141.5t-141.5 -58.5t-141.5 58.5t-58.5 141.5v600q0 83 -58.5 141.5t-141.5 58.5t-141.5 -58.5t-58.5 -141.5v-600q0 -83 -58.5 -141.5t-141.5 -58.5t-141.5 58.5t-58.5 141.5v1000
q0 83 58.5 141.5t141.5 58.5q82 0 140 -57zM950 2000q0 83 58.5 141.5t141.5 58.5t141.5 -58.5t58.5 -141.5q0 -207 -146.5 -353.5t-353.5 -146.5q-225 0 -325 150q-75 91 -104.5 120.5t-70.5 29.5t-70.5 -29.5t-29.5 -70.5q0 -83 -58.5 -141.5t-141.5 -58.5t-141.5 58.5
t-58.5 141.5q0 207 146.5 353.5t353.5 146.5q225 0 325 -150q75 -91 104.5 -120.5t70.5 -29.5t70.5 29.5t29.5 70.5z" />
    <glyph glyph-name="ograve" unicode="&#xf2;" horiz-adv-x="1600" 
d="M700 0q-290 0 -495 205t-205 495t205 495t495 205t495 -205t205 -495t-205 -495t-495 -205zM912 488q88 88 88 212t-88 212t-212 88t-212 -88t-88 -212t88 -212t212 -88t212 88zM259 1959q-59 58 -59 141t58.5 141.5t141.5 58.5q50 0 142 -58l600 -400q58 -59 58 -142
t-58.5 -141.5t-141.5 -58.5q-50 0 -141 59z" />
    <glyph glyph-name="oacute" unicode="&#xf3;" horiz-adv-x="1600" 
d="M700 0q-290 0 -495 205t-205 495t205 495t495 205t495 -205t205 -495t-205 -495t-495 -205zM912 488q88 88 88 212t-88 212t-212 88t-212 -88t-88 -212t88 -212t212 -88t212 88zM542 1559q-92 -59 -142 -59q-83 0 -141.5 58.5t-58.5 141.5t59 142l600 400q91 58 141 58
q83 0 141.5 -58.5t58.5 -141.5t-58 -141z" />
    <glyph glyph-name="ocircumflex" unicode="&#xf4;" horiz-adv-x="1600" 
d="M700 0q-290 0 -495 205t-205 495t205 495t495 205t495 -205t205 -495t-205 -495t-495 -205zM912 488q88 88 88 212t-88 212t-212 88t-212 -88t-88 -212t88 -212t212 -88t212 88zM701 1833l-309 -274q-59 -59 -142 -59t-141.5 58.5t-58.5 141.5t59 142l450 400
q58 58 141 58t142 -58l450 -400q58 -59 58 -142t-58.5 -141.5t-141.5 -58.5t-141 59z" />
    <glyph glyph-name="otilde" unicode="&#xf5;" horiz-adv-x="1600" 
d="M700 0q-290 0 -495 205t-205 495t205 495t495 205t495 -205t205 -495t-205 -495t-495 -205zM912 488q88 88 88 212t-88 212t-212 88t-212 -88t-88 -212t88 -212t212 -88t212 88zM1050 2000q0 83 58.5 141.5t141.5 58.5t141.5 -58.5t58.5 -141.5q0 -207 -146.5 -353.5
t-353.5 -146.5q-225 0 -325 150q-75 91 -104.5 120.5t-70.5 29.5t-70.5 -29.5t-29.5 -70.5q0 -83 -58.5 -141.5t-141.5 -58.5t-141.5 58.5t-58.5 141.5q0 207 146.5 353.5t353.5 146.5q225 0 325 -150q75 -91 104.5 -120.5t70.5 -29.5t70.5 29.5t29.5 70.5z" />
    <glyph glyph-name="odieresis" unicode="&#xf6;" horiz-adv-x="1600" 
d="M700 0q-290 0 -495 205t-205 495t205 495t495 205t495 -205t205 -495t-205 -495t-495 -205zM912 488q88 88 88 212t-88 212t-212 88t-212 -88t-88 -212t88 -212t212 -88t212 88zM400 1600q-83 0 -141.5 58.5t-58.5 141.5t58.5 141.5t141.5 58.5t141.5 -58.5t58.5 -141.5
t-58.5 -141.5t-141.5 -58.5zM1000 1600q-83 0 -141.5 58.5t-58.5 141.5t58.5 141.5t141.5 58.5t141.5 -58.5t58.5 -141.5t-58.5 -141.5t-141.5 -58.5z" />
    <glyph glyph-name="divide" unicode="&#xf7;" horiz-adv-x="1200" 
d="M800 1000q83 0 141.5 -58.5t58.5 -141.5t-58.5 -141.5t-141.5 -58.5h-600q-83 0 -141.5 58.5t-58.5 141.5t58.5 141.5t141.5 58.5h600zM500 1100q-83 0 -141.5 58.5t-58.5 141.5t58.5 141.5t141.5 58.5t141.5 -58.5t58.5 -141.5t-58.5 -141.5t-141.5 -58.5zM500 100
q-83 0 -141.5 58.5t-58.5 141.5t58.5 141.5t141.5 58.5t141.5 -58.5t58.5 -141.5t-58.5 -141.5t-141.5 -58.5z" />
    <glyph glyph-name="oslash" unicode="&#xf8;" horiz-adv-x="1600" 
d="M715 400q114 5 197 88q88 88 88 212q0 27 -4 51zM404 648l281 352q-114 -5 -197 -88q-88 -88 -88 -212q0 -27 4 -52zM1275 1101q125 -174 125 -401q0 -290 -205 -495t-495 -205q-144 0 -267 51q-56 -51 -133 -51q-83 0 -141.5 58.5t-58.5 141.5q0 54 25 98
q-125 175 -125 402q0 290 205 495t495 205q144 0 267 -50q56 50 133 50q83 0 141.5 -58.5t58.5 -141.5q0 -55 -25 -99z" />
    <glyph glyph-name="ugrave" unicode="&#xf9;" 
d="M860 57q-118 -57 -260 -57q-249 0 -424.5 175.5t-175.5 424.5v600q0 83 58.5 141.5t141.5 58.5t141.5 -58.5t58.5 -141.5v-600q0 -83 58.5 -141.5t141.5 -58.5t141.5 58.5t58.5 141.5v600q0 83 58.5 141.5t141.5 58.5t141.5 -58.5t58.5 -141.5v-1000q0 -83 -58.5 -141.5
t-141.5 -58.5q-82 0 -140 57zM159 1959q-59 58 -59 141t58.5 141.5t141.5 58.5q50 0 142 -58l600 -400q58 -59 58 -142t-58.5 -141.5t-141.5 -58.5q-50 0 -141 59z" />
    <glyph glyph-name="uacute" unicode="&#xfa;" 
d="M860 57q-118 -57 -260 -57q-249 0 -424.5 175.5t-175.5 424.5v600q0 83 58.5 141.5t141.5 58.5t141.5 -58.5t58.5 -141.5v-600q0 -83 58.5 -141.5t141.5 -58.5t141.5 58.5t58.5 141.5v600q0 83 58.5 141.5t141.5 58.5t141.5 -58.5t58.5 -141.5v-1000q0 -83 -58.5 -141.5
t-141.5 -58.5q-82 0 -140 57zM442 1559q-92 -59 -142 -59q-83 0 -141.5 58.5t-58.5 141.5t59 142l600 400q91 58 141 58q83 0 141.5 -58.5t58.5 -141.5t-58 -141z" />
    <glyph glyph-name="ucircumflex" unicode="&#xfb;" 
d="M860 57q-118 -57 -260 -57q-249 0 -424.5 175.5t-175.5 424.5v600q0 83 58.5 141.5t141.5 58.5t141.5 -58.5t58.5 -141.5v-600q0 -83 58.5 -141.5t141.5 -58.5t141.5 58.5t58.5 141.5v600q0 83 58.5 141.5t141.5 58.5t141.5 -58.5t58.5 -141.5v-1000q0 -83 -58.5 -141.5
t-141.5 -58.5q-82 0 -140 57zM601 1833l-309 -274q-59 -59 -142 -59t-141.5 58.5t-58.5 141.5t59 142l450 400q58 58 141 58t142 -58l450 -400q58 -59 58 -142t-58.5 -141.5t-141.5 -58.5t-141 59z" />
    <glyph glyph-name="udieresis" unicode="&#xfc;" 
d="M860 57q-118 -57 -260 -57q-249 0 -424.5 175.5t-175.5 424.5v600q0 83 58.5 141.5t141.5 58.5t141.5 -58.5t58.5 -141.5v-600q0 -83 58.5 -141.5t141.5 -58.5t141.5 58.5t58.5 141.5v600q0 83 58.5 141.5t141.5 58.5t141.5 -58.5t58.5 -141.5v-1000q0 -83 -58.5 -141.5
t-141.5 -58.5q-82 0 -140 57zM300 1600q-83 0 -141.5 58.5t-58.5 141.5t58.5 141.5t141.5 58.5t141.5 -58.5t58.5 -141.5t-58.5 -141.5t-141.5 -58.5zM900 1600q-83 0 -141.5 58.5t-58.5 141.5t58.5 141.5t141.5 58.5t141.5 -58.5t58.5 -141.5t-58.5 -141.5t-141.5 -58.5z
" />
    <glyph glyph-name="yacute" unicode="&#xfd;" 
d="M442 1559q-92 -59 -142 -59q-83 0 -141.5 58.5t-58.5 141.5t59 142l600 400q91 58 141 58q83 0 141.5 -58.5t58.5 -141.5t-58 -141zM1200 1200q0 -83 -25 -125l-650 -1575h-1q-13 -22 -32 -41q-59 -59 -142 -59t-141.5 58.5t-58.5 141.5q0 55 26 100h-1l209 514l-359 886
q-15 45 -25 100q0 83 58.5 141.5t141.5 58.5t142 -58q39 -50 57 -117h1l200 -475l44 106l156 369h1q18 67 58 117q58 58 141 58t141.5 -58.5t58.5 -141.5z" />
    <glyph glyph-name="thorn" unicode="&#xfe;" horiz-adv-x="1600" 
d="M912 488q88 88 88 212t-88 212t-212 88t-212 -88t-88 -212t88 -212t212 -88t212 88zM0 1400q0 83 58.5 141.5t141.5 58.5t141.5 -58.5t58.5 -141.5v-65q136 65 300 65q290 0 495 -205t205 -495t-205 -495t-495 -205q-164 0 -300 65v-465q0 -83 -58.5 -141.5t-141.5 -58.5
t-141.5 58.5t-58.5 141.5v1800z" />
    <glyph glyph-name="ydieresis" unicode="&#xff;" 
d="M300 1600q-83 0 -141.5 58.5t-58.5 141.5t58.5 141.5t141.5 58.5t141.5 -58.5t58.5 -141.5t-58.5 -141.5t-141.5 -58.5zM900 1600q-83 0 -141.5 58.5t-58.5 141.5t58.5 141.5t141.5 58.5t141.5 -58.5t58.5 -141.5t-58.5 -141.5t-141.5 -58.5zM1200 1200q0 -83 -25 -125
l-650 -1575h-1q-13 -22 -32 -41q-59 -59 -142 -59t-141.5 58.5t-58.5 141.5q0 55 26 100h-1l209 514l-359 886q-15 45 -25 100q0 83 58.5 141.5t141.5 58.5t142 -58q39 -50 57 -117h1l200 -475l44 106l156 369h1q18 67 58 117q58 58 141 58t141.5 -58.5t58.5 -141.5z" />
    <glyph glyph-name="dotlessi" unicode="&#x131;" horiz-adv-x="600" 
d="M400 200q0 -83 -58.5 -141.5t-141.5 -58.5t-141.5 58.5t-58.5 141.5v1000q0 83 58.5 141.5t141.5 58.5t141.5 -58.5t58.5 -141.5v-1000z" />
    <glyph glyph-name="circumflex" unicode="&#x2c6;" horiz-adv-x="1500" 
d="M651 2033l-309 -274q-59 -59 -142 -59t-141.5 58.5t-58.5 141.5t59 142l450 400q58 58 141 58t142 -58l450 -400q58 -59 58 -142t-58.5 -141.5t-141.5 -58.5t-141 59z" />
    <glyph glyph-name="caron" unicode="&#x2c7;" horiz-adv-x="1500" 
d="M959 2441q58 59 141 59t141.5 -58.5t58.5 -141.5t-58 -142l-450 -400q-59 -58 -142 -58t-141 58l-450 400q-59 59 -59 142t58.5 141.5t141.5 58.5t142 -59l309 -274z" />
    <glyph glyph-name="uni02C9" unicode="&#x2c9;" horiz-adv-x="1650" 
d="M0 200v1100q0 200 200 200h1100q200 0 200 -200v-1100q0 -200 -200 -200h-1100q-200 0 -200 200zM1475 201v1099q0 175 -175 175h-1100q-174 0 -175 -175v-1100q1 -175 175 -175h1101q174 0 174 176z" />
    <glyph glyph-name="breve" unicode="&#x2d8;" horiz-adv-x="1650" 
d="M0 200v1100q0 200 200 200h1100q200 0 200 -200v-1100q0 -200 -200 -200h-1100q-200 0 -200 200zM1475 201v1099q0 175 -175 175h-1100q-174 0 -175 -175v-1100q1 -175 175 -175h1101q174 0 174 176z" />
    <glyph glyph-name="dotaccent" unicode="&#x2d9;" horiz-adv-x="600" 
d="M200 1800q-83 0 -141.5 58.5t-58.5 141.5t58.5 141.5t141.5 58.5t141.5 -58.5t58.5 -141.5t-58.5 -141.5t-141.5 -58.5z" />
    <glyph glyph-name="ring" unicode="&#x2da;" horiz-adv-x="600" 
d="M200 1800q-83 0 -141.5 58.5t-58.5 141.5t58.5 141.5t141.5 58.5t141.5 -58.5t58.5 -141.5t-58.5 -141.5t-141.5 -58.5z" />
    <glyph glyph-name="ogonek" unicode="&#x2db;" horiz-adv-x="1000" 
d="M741.5 -258.5q58.5 -58.5 58.5 -141.5t-58.5 -141.5t-141.5 -58.5q-249 0 -424.5 175.5t-175.5 424.5q0 83 58.5 141.5t141.5 58.5t141.5 -58.5t58.5 -141.5t58.5 -141.5t141.5 -58.5t141.5 -58.5z" />
    <glyph glyph-name="tilde" unicode="&#x2dc;" horiz-adv-x="1700" 
d="M1100 2200q0 83 58.5 141.5t141.5 58.5t141.5 -58.5t58.5 -141.5q0 -207 -146.5 -353.5t-353.5 -146.5q-225 0 -325 150q-75 91 -104.5 120.5t-70.5 29.5t-70.5 -29.5t-29.5 -70.5q0 -83 -58.5 -141.5t-141.5 -58.5t-141.5 58.5t-58.5 141.5q0 207 146.5 353.5
t353.5 146.5q225 0 325 -150q75 -91 104.5 -120.5t70.5 -29.5t70.5 29.5t29.5 70.5z" />
    <glyph glyph-name="hungarumlaut" unicode="&#x2dd;" horiz-adv-x="1024" 
d="M217 1079l144 273q24 44 45.5 63t46.5 19q28 0 48 -20t20 -47q0 -16 -10.5 -35t-30.5 -41l-205 -212h-58zM502 1079l144 273q24 44 45.5 63t46.5 19q28 0 48 -20t20 -47q0 -16 -10.5 -35t-30.5 -41l-205 -212h-58z" />
    <glyph glyph-name="endash" unicode="&#x2013;" 
d="M1000 1000q83 0 141.5 -58.5t58.5 -141.5t-58.5 -141.5t-141.5 -58.5h-800q-83 0 -141.5 58.5t-58.5 141.5t58.5 141.5t141.5 58.5h800z" />
    <glyph glyph-name="emdash" unicode="&#x2014;" horiz-adv-x="1600" 
d="M1200 1000q83 0 141.5 -58.5t58.5 -141.5t-58.5 -141.5t-141.5 -58.5h-1000q-83 0 -141.5 58.5t-58.5 141.5t58.5 141.5t141.5 58.5h1000z" />
    <glyph glyph-name="quoteleft" unicode="&#x2018;" horiz-adv-x="600" 
d="M0 1400q0 83 58.5 141.5t141.5 58.5t141.5 -58.5t58.5 -141.5v-400q0 -83 -58.5 -141.5t-141.5 -58.5t-141.5 58.5t-58.5 141.5v400z" />
    <glyph glyph-name="quoteright" unicode="&#x2019;" horiz-adv-x="600" 
d="M0 1400q0 83 58.5 141.5t141.5 58.5t141.5 -58.5t58.5 -141.5v-400q0 -83 -58.5 -141.5t-141.5 -58.5t-141.5 58.5t-58.5 141.5v400z" />
    <glyph glyph-name="quotesinglbase" unicode="&#x201a;" horiz-adv-x="600" 
d="M0 200q0 83 58.5 141.5t141.5 58.5t141.5 -58.5t58.5 -141.5v-400q0 -83 -58.5 -141.5t-141.5 -58.5t-141.5 58.5t-58.5 141.5v400z" />
    <glyph glyph-name="quotedblleft" unicode="&#x201c;" horiz-adv-x="1200" 
d="M0 1400q0 83 58.5 141.5t141.5 58.5t141.5 -58.5t58.5 -141.5v-400q0 -83 -58.5 -141.5t-141.5 -58.5t-141.5 58.5t-58.5 141.5v400zM600 1400q0 83 58.5 141.5t141.5 58.5t141.5 -58.5t58.5 -141.5v-400q0 -83 -58.5 -141.5t-141.5 -58.5t-141.5 58.5t-58.5 141.5v400z
" />
    <glyph glyph-name="quotedblright" unicode="&#x201d;" horiz-adv-x="1200" 
d="M0 1400q0 83 58.5 141.5t141.5 58.5t141.5 -58.5t58.5 -141.5v-400q0 -83 -58.5 -141.5t-141.5 -58.5t-141.5 58.5t-58.5 141.5v400zM600 1400q0 83 58.5 141.5t141.5 58.5t141.5 -58.5t58.5 -141.5v-400q0 -83 -58.5 -141.5t-141.5 -58.5t-141.5 58.5t-58.5 141.5v400z
" />
    <glyph glyph-name="quotedblbase" unicode="&#x201e;" horiz-adv-x="1200" 
d="M0 200q0 83 58.5 141.5t141.5 58.5t141.5 -58.5t58.5 -141.5v-400q0 -83 -58.5 -141.5t-141.5 -58.5t-141.5 58.5t-58.5 141.5v400zM600 200q0 83 58.5 141.5t141.5 58.5t141.5 -58.5t58.5 -141.5v-400q0 -83 -58.5 -141.5t-141.5 -58.5t-141.5 58.5t-58.5 141.5v400z
" />
    <glyph glyph-name="dagger" unicode="&#x2020;" horiz-adv-x="1014" 
d="M486 1022q-8 97 -54 178q-57 101 -57 129q0 49 36 78.5t96 29.5q57 0 94.5 -27.5t37.5 -71.5q0 -32 -55 -137q-46 -85 -55 -179q96 8 177 54q101 57 129 57q49 0 79 -36t30 -96q0 -57 -27.5 -94.5t-72.5 -37.5q-32 0 -136 55q-85 46 -179 57q8 -176 110 -277
q-106 -460 -112 -974h-38q-6 514 -114 974q102 101 111 277q-96 -10 -178 -55q-101 -57 -129 -57q-49 0 -78.5 36t-29.5 96q0 57 27.5 94.5t71.5 37.5q32 0 137 -56q85 -46 179 -55z" />
    <glyph glyph-name="daggerdbl" unicode="&#x2021;" horiz-adv-x="1014" 
d="M528 186q94 11 179 57q104 55 136 55q45 0 72.5 -37.5t27.5 -94.5q0 -60 -30 -96t-79 -36q-28 0 -129 57q-81 46 -177 54q9 -94 55 -179q55 -105 55 -137q0 -44 -37.5 -71.5t-94.5 -27.5q-60 0 -96 29.5t-36 78.5q0 28 57 129q46 81 54 178q-94 -9 -179 -55
q-105 -56 -137 -56q-44 0 -71.5 37.5t-27.5 94.5q0 60 29.5 96t78.5 36q28 0 129 -57q82 -45 178 -55q-9 226 -111 398q102 171 111 397q-96 -10 -178 -55q-101 -57 -129 -57q-49 0 -78.5 36t-29.5 96q0 57 27.5 94.5t71.5 37.5q32 0 137 -56q85 -46 179 -55q-8 97 -54 178
q-57 101 -57 129q0 49 36 78.5t96 29.5q57 0 94.5 -27.5t37.5 -71.5q0 -32 -55 -137q-46 -85 -55 -179q96 8 177 54q101 57 129 57q49 0 79 -36t30 -96q0 -57 -27.5 -94.5t-72.5 -37.5q-32 0 -136 55q-85 46 -179 57q8 -226 110 -397q-102 -172 -110 -398z" />
    <glyph glyph-name="bullet" unicode="&#x2022;" horiz-adv-x="1024" 
d="M216 718q0 123 87 209t210 86q122 0 208.5 -86.5t86.5 -208.5t-87.5 -209.5t-209.5 -87.5q-123 0 -209 87t-86 210z" />
    <glyph glyph-name="ellipsis" unicode="&#x2026;" horiz-adv-x="1800" 
d="M200 0q-83 0 -141.5 58.5t-58.5 141.5t58.5 141.5t141.5 58.5t141.5 -58.5t58.5 -141.5t-58.5 -141.5t-141.5 -58.5zM800 0q-83 0 -141.5 58.5t-58.5 141.5t58.5 141.5t141.5 58.5t141.5 -58.5t58.5 -141.5t-58.5 -141.5t-141.5 -58.5zM1400 0q-83 0 -141.5 58.5
t-58.5 141.5t58.5 141.5t141.5 58.5t141.5 -58.5t58.5 -141.5t-58.5 -141.5t-141.5 -58.5z" />
    <glyph glyph-name="guilsinglleft" unicode="&#x2039;" horiz-adv-x="925" 
d="M474 700l293 -358q58 -59 58 -142t-58.5 -141.5t-141.5 -58.5t-141 59l-434 541q-37 50 -37 100t37 100l434 542q58 58 141 58t141.5 -58.5t58.5 -141.5t-58 -141z" />
    <glyph glyph-name="guilsinglright" unicode="&#x203a;" horiz-adv-x="925" 
d="M71 1059q-58 58 -58 141t58.5 141.5t141.5 58.5t141 -58l434 -542q38 -50 38 -100t-38 -100l-434 -541q-58 -59 -141 -59t-141.5 58.5t-58.5 141.5t58 142l293 358z" />
    <glyph glyph-name="fraction" unicode="&#x2044;" 
d="M25 300l800 1200l1 -1q13 23 32 43q59 58 142 58t141.5 -58.5t58.5 -141.5t-25 -125l-800 -1175h-1q-13 -22 -32 -41q-59 -59 -142 -59t-141.5 58.5t-58.5 141.5q0 55 26 100h-1z" />
    <glyph glyph-name="fraction" unicode="&#x2215;" 
d="M25 300l800 1200l1 -1q13 23 32 43q59 58 142 58t141.5 -58.5t58.5 -141.5t-25 -125l-800 -1175h-1q-13 -22 -32 -41q-59 -59 -142 -59t-141.5 58.5t-58.5 141.5q0 55 26 100h-1z" />
    <glyph glyph-name="franc" unicode="&#x20a3;" horiz-adv-x="1600" 
d="M200 600v800q0 83 58.5 141.5t141.5 58.5h800q83 0 141.5 -58.5t58.5 -141.5t-58.5 -141.5t-141.5 -58.5h-600v-200h400q83 0 141.5 -58.5t58.5 -141.5t-58.5 -141.5t-141.5 -58.5h-400v-400q0 -83 -58.5 -141.5t-141.5 -58.5t-141.5 58.5t-58.5 141.5q-83 0 -141.5 58.5
t-58.5 141.5t58.5 141.5t141.5 58.5z" />
    <glyph glyph-name="lira" unicode="&#x20a4;" horiz-adv-x="1550" 
d="M1150 400q83 0 141.5 -58.5t58.5 -141.5t-58.5 -141.5t-141.5 -58.5h-950q-83 0 -141.5 58.5t-58.5 141.5t58.5 141.5t141.5 58.5v100q-83 0 -141.5 58.5t-58.5 141.5t58.5 141.5t141.5 58.5v100q0 249 175.5 424.5t424.5 175.5t425 -175q45 -46 78 -95q47 -55 47 -130
q0 -83 -58.5 -141.5t-141.5 -58.5t-141 59l-67 83q-59 58 -142 58t-141.5 -58.5t-58.5 -141.5v-100h100q83 0 141.5 -58.5t58.5 -141.5t-58.5 -141.5t-141.5 -58.5h-100v-100h550z" />
    <glyph glyph-name="peseta" unicode="&#x20a7;" horiz-adv-x="1600" 
d="M900 1200h-300v-200h300q41 0 70.5 29.5t29.5 70.5t-29.5 70.5t-70.5 29.5zM200 600v800q0 83 58.5 141.5t141.5 58.5h500q207 0 353.5 -146.5t146.5 -353.5t-146.5 -353.5t-353.5 -146.5h-300v-400q0 -83 -58.5 -141.5t-141.5 -58.5t-141.5 58.5t-58.5 141.5
q-83 0 -141.5 58.5t-58.5 141.5t58.5 141.5t141.5 58.5z" />
    <glyph glyph-name="Euro" unicode="&#x20ac;" horiz-adv-x="1650" 
d="M700 600q0 -83 58.5 -141.5t141.5 -58.5t142 59l67 83q58 58 141 58t141.5 -58.5t58.5 -141.5q0 -75 -47 -130q-33 -49 -78 -94q-176 -176 -425 -176t-424.5 175.5t-175.5 424.5h-100q-83 0 -141.5 58.5t-58.5 141.5t58.5 141.5t141.5 58.5h100q0 249 175.5 424.5
t424.5 175.5t425 -175q45 -46 78 -95q47 -55 47 -130q0 -83 -58.5 -141.5t-141.5 -58.5t-141 59l-67 83q-59 58 -142 58t-141.5 -58.5t-58.5 -141.5h100q83 0 141.5 -58.5t58.5 -141.5t-58.5 -141.5t-141.5 -58.5h-100z" />
    <glyph glyph-name="afii61352" unicode="&#x2116;" horiz-adv-x="1700" 
d="M400 1215v285q0 42 29.5 71t70.5 29q42 0 71 -29t29 -71v-600q0 -41 -29 -70.5t-71 -29.5q-41 0 -70 30q-10 9 -17 20l-213 335v-285q0 -41 -29 -70.5t-71 -29.5q-41 0 -70.5 29.5t-29.5 70.5v600q0 42 29.5 71t70.5 29q42 0 71 -29q10 -10 16 -21h1zM1100 775
q-165 0 -282.5 117.5t-117.5 282.5q0 166 117.5 283t282.5 117q166 0 283 -117t117 -283q0 -165 -117 -282.5t-283 -117.5zM1241.5 1033.5q58.5 58.5 58.5 141.5t-58.5 141.5t-141.5 58.5t-141.5 -58.5t-58.5 -141.5t58.5 -141.5t141.5 -58.5t141.5 58.5z" />
    <glyph glyph-name="trademark" unicode="&#x2122;" horiz-adv-x="1675" 
d="M200 1400h-100q-41 0 -70.5 29.5t-29.5 70.5q0 42 29.5 71t70.5 29h400q42 0 71 -29t29 -71q0 -41 -29 -70.5t-71 -29.5h-100v-500q0 -41 -29 -70.5t-71 -29.5q-41 0 -70.5 29.5t-29.5 70.5v500zM1025 1213l100 300q10 33 29 58q30 29 71 29q42 0 71 -29q20 -25 29 -58
l138 -563q7 -22 12 -50q0 -41 -29 -70.5t-71 -29.5q-41 0 -71 29q-19 25 -28 59h-1l-62 262l-88 -262q0 -1 -1 -2q-4 -32 -28 -57q-29 -29 -71 -29q-41 0 -73 32q-22 23 -26 54v2h-1l-87 262l-63 -262q-9 -34 -29 -59q-29 -29 -71 -29q-41 0 -70.5 29.5t-29.5 70.5
q5 28 13 50l137 563q10 33 29 58q30 29 71 29q42 0 71 -29q20 -25 29 -58z" />
    <glyph glyph-name="partialdiff" unicode="&#x2202;" horiz-adv-x="1650" 
d="M0 200v1100q0 200 200 200h1100q200 0 200 -200v-1100q0 -200 -200 -200h-1100q-200 0 -200 200zM1475 201v1099q0 175 -175 175h-1100q-174 0 -175 -175v-1100q1 -175 175 -175h1101q174 0 174 176z" />
    <glyph glyph-name="Delta" unicode="&#x2206;" horiz-adv-x="1650" 
d="M0 200v1100q0 200 200 200h1100q200 0 200 -200v-1100q0 -200 -200 -200h-1100q-200 0 -200 200zM1475 201v1099q0 175 -175 175h-1100q-174 0 -175 -175v-1100q1 -175 175 -175h1101q174 0 174 176z" />
    <glyph glyph-name="product" unicode="&#x220f;" horiz-adv-x="1650" 
d="M0 200v1100q0 200 200 200h1100q200 0 200 -200v-1100q0 -200 -200 -200h-1100q-200 0 -200 200zM1475 201v1099q0 175 -175 175h-1100q-174 0 -175 -175v-1100q1 -175 175 -175h1101q174 0 174 176z" />
    <glyph glyph-name="summation" unicode="&#x2211;" horiz-adv-x="1650" 
d="M0 200v1100q0 200 200 200h1100q200 0 200 -200v-1100q0 -200 -200 -200h-1100q-200 0 -200 200zM1475 201v1099q0 175 -175 175h-1100q-174 0 -175 -175v-1100q1 -175 175 -175h1101q174 0 174 176z" />
    <glyph glyph-name="minus" unicode="&#x2212;" horiz-adv-x="1014" 
d="M87 647v140h839l1 -1v-139h-840z" />
    <glyph glyph-name="radical" unicode="&#x221a;" horiz-adv-x="1650" 
d="M0 200v1100q0 200 200 200h1100q200 0 200 -200v-1100q0 -200 -200 -200h-1100q-200 0 -200 200zM1475 201v1099q0 175 -175 175h-1100q-174 0 -175 -175v-1100q1 -175 175 -175h1101q174 0 174 176z" />
    <glyph glyph-name="infinity" unicode="&#x221e;" horiz-adv-x="1650" 
d="M0 200v1100q0 200 200 200h1100q200 0 200 -200v-1100q0 -200 -200 -200h-1100q-200 0 -200 200zM1475 201v1099q0 175 -175 175h-1100q-174 0 -175 -175v-1100q1 -175 175 -175h1101q174 0 174 176z" />
    <glyph glyph-name="integral" unicode="&#x222b;" horiz-adv-x="1650" 
d="M0 200v1100q0 200 200 200h1100q200 0 200 -200v-1100q0 -200 -200 -200h-1100q-200 0 -200 200zM1475 201v1099q0 175 -175 175h-1100q-174 0 -175 -175v-1100q1 -175 175 -175h1101q174 0 174 176z" />
    <glyph glyph-name="approxequal" unicode="&#x2248;" horiz-adv-x="1650" 
d="M0 200v1100q0 200 200 200h1100q200 0 200 -200v-1100q0 -200 -200 -200h-1100q-200 0 -200 200zM1475 201v1099q0 175 -175 175h-1100q-174 0 -175 -175v-1100q1 -175 175 -175h1101q174 0 174 176z" />
    <glyph glyph-name="lessequal" unicode="&#x2264;" horiz-adv-x="1650" 
d="M0 200v1100q0 200 200 200h1100q200 0 200 -200v-1100q0 -200 -200 -200h-1100q-200 0 -200 200zM1475 201v1099q0 175 -175 175h-1100q-174 0 -175 -175v-1100q1 -175 175 -175h1101q174 0 174 176z" />
    <glyph glyph-name="greaterequal" unicode="&#x2265;" horiz-adv-x="1650" 
d="M0 200v1100q0 200 200 200h1100q200 0 200 -200v-1100q0 -200 -200 -200h-1100q-200 0 -200 200zM1475 201v1099q0 175 -175 175h-1100q-174 0 -175 -175v-1100q1 -175 175 -175h1101q174 0 174 176z" />
    <glyph glyph-name="uniF001" unicode="&#xf001;" horiz-adv-x="1073" 
 />
    <glyph glyph-name="uniF001" unicode="&#xfb01;" horiz-adv-x="1073" 
 />
    <glyph glyph-name="uniF002" unicode="&#xf002;" horiz-adv-x="1081" 
 />
    <glyph glyph-name="uniF002" unicode="&#xfb02;" horiz-adv-x="1081" 
 />
    </font>
</defs>
</svg>
